<?xml version="1.0" standalone="no"?>
<!DOCTYPE svg PUBLIC "-//W3C//DTD SVG 1.1//EN"
  "http://www.w3.org/Graphics/SVG/1.1/DTD/svg11.dtd">
<svg height="1790" width="459" version="1.1"  xmlns="http://www.w3.org/2000/svg">
  <style type="text/css">
  <![CDATA[
    @import url(http://fonts.googleapis.com/css?family=Inconsolata);

    text {
      font-size: 12pt;
      font-family: Inconsolata;
    }
  ]]>
  </style>
  <g fill-opacity="0.4" stroke-opacity="0.4"></g><g stroke-dasharray="5,5"></g><rect x="29" y="10" width="40" height="40" r="0" rx="0" ry="0" fill="white" stroke="black" stroke-width="" stroke-opacity="" stroke-dasharray=""></rect><a xmlns:xlink="http://www.w3.org/1999/xlink" xlink:href="#ir-B0"><text dominant-baseline="middle" text-anchor="middle" x="49" y="30" fill="black" stroke="black" style="font-family: Monaco, Menlo, Consolas, 'Courier New', monospace;">B0</text></a><rect x="295" y="70" width="40" height="40" r="0" rx="0" ry="0" fill="white" stroke="black" stroke-width="" stroke-opacity="" stroke-dasharray=""></rect><a xmlns:xlink="http://www.w3.org/1999/xlink" xlink:href="#ir-B1"><text dominant-baseline="middle" text-anchor="middle" x="315" y="90" fill="black" stroke="black" style="font-family: Monaco, Menlo, Consolas, 'Courier New', monospace;">B1</text></a><rect x="295" y="130" width="40" height="40" r="0" rx="0" ry="0" fill="white" stroke="black" stroke-width="" stroke-opacity="" stroke-dasharray=""></rect><a xmlns:xlink="http://www.w3.org/1999/xlink" xlink:href="#ir-B2"><text dominant-baseline="middle" text-anchor="middle" x="315" y="150" fill="black" stroke="black" style="font-family: Monaco, Menlo, Consolas, 'Courier New', monospace;">B2</text></a><rect x="294" y="190" width="40" height="40" r="0" rx="0" ry="0" fill="#FCBBA1" stroke="black" stroke-width="" stroke-opacity="" stroke-dasharray=""></rect><a xmlns:xlink="http://www.w3.org/1999/xlink" xlink:href="#ir-B3"><text dominant-baseline="middle" text-anchor="middle" x="314" y="210" fill="black" stroke="black" style="font-family: Monaco, Menlo, Consolas, 'Courier New', monospace;">B3</text></a><rect x="162" y="250" width="40" height="40" r="0" rx="0" ry="0" fill="#FCBBA1" stroke="black" stroke-width="" stroke-opacity="" stroke-dasharray=""></rect><a xmlns:xlink="http://www.w3.org/1999/xlink" xlink:href="#ir-B4"><text dominant-baseline="middle" text-anchor="middle" x="182" y="270" fill="black" stroke="black" style="font-family: Monaco, Menlo, Consolas, 'Courier New', monospace;">B4</text></a><rect x="254" y="310" width="40" height="40" r="0" rx="0" ry="0" fill="#FCBBA1" stroke="black" stroke-width="" stroke-opacity="" stroke-dasharray=""></rect><a xmlns:xlink="http://www.w3.org/1999/xlink" xlink:href="#ir-B5"><text dominant-baseline="middle" text-anchor="middle" x="274" y="330" fill="black" stroke="black" style="font-family: Monaco, Menlo, Consolas, 'Courier New', monospace;">B5</text></a><rect x="254" y="370" width="40" height="40" r="0" rx="0" ry="0" fill="#FCBBA1" stroke="black" stroke-width="" stroke-opacity="" stroke-dasharray=""></rect><a xmlns:xlink="http://www.w3.org/1999/xlink" xlink:href="#ir-B6"><text dominant-baseline="middle" text-anchor="middle" x="274" y="390" fill="black" stroke="black" style="font-family: Monaco, Menlo, Consolas, 'Courier New', monospace;">B6</text></a><rect x="158" y="430" width="40" height="40" r="0" rx="0" ry="0" fill="#FCBBA1" stroke="black" stroke-width="" stroke-opacity="" stroke-dasharray=""></rect><a xmlns:xlink="http://www.w3.org/1999/xlink" xlink:href="#ir-B7"><text dominant-baseline="middle" text-anchor="middle" x="178" y="450" fill="black" stroke="black" style="font-family: Monaco, Menlo, Consolas, 'Courier New', monospace;">B7</text></a><rect x="92" y="1390" width="40" height="40" r="0" rx="0" ry="0" fill="white" stroke="black" stroke-width="" stroke-opacity="" stroke-dasharray=""></rect><a xmlns:xlink="http://www.w3.org/1999/xlink" xlink:href="#ir-B8"><text dominant-baseline="middle" text-anchor="middle" x="112" y="1410" fill="black" stroke="black" style="font-family: Monaco, Menlo, Consolas, 'Courier New', monospace;">B8</text></a><rect x="10" y="1210" width="40" height="40" r="0" rx="0" ry="0" fill="white" stroke="black" stroke-width="" stroke-opacity="" stroke-dasharray=""></rect><a xmlns:xlink="http://www.w3.org/1999/xlink" xlink:href="#ir-B9"><text dominant-baseline="middle" text-anchor="middle" x="30" y="1230" fill="black" stroke="black" style="font-family: Monaco, Menlo, Consolas, 'Courier New', monospace;">B9</text></a><rect x="92" y="1450" width="40" height="40" r="0" rx="0" ry="0" fill="white" stroke="black" stroke-width="" stroke-opacity="" stroke-dasharray=""></rect><a xmlns:xlink="http://www.w3.org/1999/xlink" xlink:href="#ir-B10"><text dominant-baseline="middle" text-anchor="middle" x="112" y="1470" fill="black" stroke="black" style="font-family: Monaco, Menlo, Consolas, 'Courier New', monospace;">B10</text></a><rect x="233" y="490" width="40" height="40" r="0" rx="0" ry="0" fill="#FCBBA1" stroke="black" stroke-width="" stroke-opacity="" stroke-dasharray=""></rect><a xmlns:xlink="http://www.w3.org/1999/xlink" xlink:href="#ir-B11"><text dominant-baseline="middle" text-anchor="middle" x="253" y="510" fill="black" stroke="black" style="font-family: Monaco, Menlo, Consolas, 'Courier New', monospace;">B11</text></a><rect x="213" y="550" width="40" height="40" r="0" rx="0" ry="0" fill="white" stroke="black" stroke-width="" stroke-opacity="" stroke-dasharray=""></rect><a xmlns:xlink="http://www.w3.org/1999/xlink" xlink:href="#ir-B12"><text dominant-baseline="middle" text-anchor="middle" x="233" y="570" fill="black" stroke="black" style="font-family: Monaco, Menlo, Consolas, 'Courier New', monospace;">B12</text></a><rect x="153" y="610" width="40" height="40" r="0" rx="0" ry="0" fill="white" stroke="black" stroke-width="" stroke-opacity="" stroke-dasharray=""></rect><a xmlns:xlink="http://www.w3.org/1999/xlink" xlink:href="#ir-B13"><text dominant-baseline="middle" text-anchor="middle" x="173" y="630" fill="black" stroke="black" style="font-family: Monaco, Menlo, Consolas, 'Courier New', monospace;">B13</text></a><rect x="136" y="670" width="40" height="40" r="0" rx="0" ry="0" fill="#FCBBA1" stroke="black" stroke-width="" stroke-opacity="" stroke-dasharray=""></rect><a xmlns:xlink="http://www.w3.org/1999/xlink" xlink:href="#ir-B14"><text dominant-baseline="middle" text-anchor="middle" x="156" y="690" fill="black" stroke="black" style="font-family: Monaco, Menlo, Consolas, 'Courier New', monospace;">B14</text></a><rect x="133" y="730" width="40" height="40" r="0" rx="0" ry="0" fill="#FCBBA1" stroke="black" stroke-width="" stroke-opacity="" stroke-dasharray=""></rect><a xmlns:xlink="http://www.w3.org/1999/xlink" xlink:href="#ir-B15"><text dominant-baseline="middle" text-anchor="middle" x="153" y="750" fill="black" stroke="black" style="font-family: Monaco, Menlo, Consolas, 'Courier New', monospace;">B15</text></a><rect x="133" y="790" width="40" height="40" r="0" rx="0" ry="0" fill="#FCBBA1" stroke="black" stroke-width="" stroke-opacity="" stroke-dasharray=""></rect><a xmlns:xlink="http://www.w3.org/1999/xlink" xlink:href="#ir-B16"><text dominant-baseline="middle" text-anchor="middle" x="153" y="810" fill="black" stroke="black" style="font-family: Monaco, Menlo, Consolas, 'Courier New', monospace;">B16</text></a><rect x="173" y="850" width="40" height="40" r="0" rx="0" ry="0" fill="#FCBBA1" stroke="black" stroke-width="" stroke-opacity="" stroke-dasharray=""></rect><a xmlns:xlink="http://www.w3.org/1999/xlink" xlink:href="#ir-B17"><text dominant-baseline="middle" text-anchor="middle" x="193" y="870" fill="black" stroke="black" style="font-family: Monaco, Menlo, Consolas, 'Courier New', monospace;">B17</text></a><rect x="173" y="910" width="40" height="40" r="0" rx="0" ry="0" fill="white" stroke="black" stroke-width="" stroke-opacity="" stroke-dasharray=""></rect><a xmlns:xlink="http://www.w3.org/1999/xlink" xlink:href="#ir-B18"><text dominant-baseline="middle" text-anchor="middle" x="193" y="930" fill="black" stroke="black" style="font-family: Monaco, Menlo, Consolas, 'Courier New', monospace;">B18</text></a><rect x="213" y="610" width="40" height="40" r="0" rx="0" ry="0" fill="white" stroke="black" stroke-width="" stroke-opacity="" stroke-dasharray=""></rect><a xmlns:xlink="http://www.w3.org/1999/xlink" xlink:href="#ir-B19"><text dominant-baseline="middle" text-anchor="middle" x="233" y="630" fill="black" stroke="black" style="font-family: Monaco, Menlo, Consolas, 'Courier New', monospace;">B19</text></a><rect x="213" y="970" width="40" height="40" r="0" rx="0" ry="0" fill="white" stroke="black" stroke-width="" stroke-opacity="" stroke-dasharray=""></rect><a xmlns:xlink="http://www.w3.org/1999/xlink" xlink:href="#ir-B20"><text dominant-baseline="middle" text-anchor="middle" x="233" y="990" fill="black" stroke="black" style="font-family: Monaco, Menlo, Consolas, 'Courier New', monospace;">B20</text></a><rect x="173" y="1030" width="40" height="40" r="0" rx="0" ry="0" fill="white" stroke="black" stroke-width="" stroke-opacity="" stroke-dasharray=""></rect><a xmlns:xlink="http://www.w3.org/1999/xlink" xlink:href="#ir-B21"><text dominant-baseline="middle" text-anchor="middle" x="193" y="1050" fill="black" stroke="black" style="font-family: Monaco, Menlo, Consolas, 'Courier New', monospace;">B21</text></a><rect x="212" y="1090" width="40" height="40" r="0" rx="0" ry="0" fill="#FCBBA1" stroke="black" stroke-width="" stroke-opacity="" stroke-dasharray=""></rect><a xmlns:xlink="http://www.w3.org/1999/xlink" xlink:href="#ir-B22"><text dominant-baseline="middle" text-anchor="middle" x="232" y="1110" fill="black" stroke="black" style="font-family: Monaco, Menlo, Consolas, 'Courier New', monospace;">B22</text></a><rect x="194" y="1150" width="40" height="40" r="0" rx="0" ry="0" fill="#FCBBA1" stroke="black" stroke-width="" stroke-opacity="" stroke-dasharray=""></rect><a xmlns:xlink="http://www.w3.org/1999/xlink" xlink:href="#ir-B23"><text dominant-baseline="middle" text-anchor="middle" x="214" y="1170" fill="black" stroke="black" style="font-family: Monaco, Menlo, Consolas, 'Courier New', monospace;">B23</text></a><rect x="194" y="1210" width="40" height="40" r="0" rx="0" ry="0" fill="#FCBBA1" stroke="black" stroke-width="" stroke-opacity="" stroke-dasharray=""></rect><a xmlns:xlink="http://www.w3.org/1999/xlink" xlink:href="#ir-B24"><text dominant-baseline="middle" text-anchor="middle" x="214" y="1230" fill="black" stroke="black" style="font-family: Monaco, Menlo, Consolas, 'Courier New', monospace;">B24</text></a><rect x="159" y="1270" width="40" height="40" r="0" rx="0" ry="0" fill="#FCBBA1" stroke="black" stroke-width="" stroke-opacity="" stroke-dasharray=""></rect><a xmlns:xlink="http://www.w3.org/1999/xlink" xlink:href="#ir-B25"><text dominant-baseline="middle" text-anchor="middle" x="179" y="1290" fill="black" stroke="black" style="font-family: Monaco, Menlo, Consolas, 'Courier New', monospace;">B25</text></a><rect x="175" y="1330" width="40" height="40" r="0" rx="0" ry="0" fill="#FCBBA1" stroke="black" stroke-width="" stroke-opacity="" stroke-dasharray=""></rect><a xmlns:xlink="http://www.w3.org/1999/xlink" xlink:href="#ir-B26"><text dominant-baseline="middle" text-anchor="middle" x="195" y="1350" fill="black" stroke="black" style="font-family: Monaco, Menlo, Consolas, 'Courier New', monospace;">B26</text></a><rect x="256" y="1390" width="40" height="40" r="0" rx="0" ry="0" fill="#FCBBA1" stroke="black" stroke-width="" stroke-opacity="" stroke-dasharray=""></rect><a xmlns:xlink="http://www.w3.org/1999/xlink" xlink:href="#ir-B27"><text dominant-baseline="middle" text-anchor="middle" x="276" y="1410" fill="black" stroke="black" style="font-family: Monaco, Menlo, Consolas, 'Courier New', monospace;">B27</text></a><rect x="256" y="1450" width="40" height="40" r="0" rx="0" ry="0" fill="white" stroke="black" stroke-width="" stroke-opacity="" stroke-dasharray=""></rect><a xmlns:xlink="http://www.w3.org/1999/xlink" xlink:href="#ir-B28"><text dominant-baseline="middle" text-anchor="middle" x="276" y="1470" fill="black" stroke="black" style="font-family: Monaco, Menlo, Consolas, 'Courier New', monospace;">B28</text></a><rect x="317" y="1150" width="40" height="40" r="0" rx="0" ry="0" fill="white" stroke="black" stroke-width="" stroke-opacity="" stroke-dasharray=""></rect><a xmlns:xlink="http://www.w3.org/1999/xlink" xlink:href="#ir-B29"><text dominant-baseline="middle" text-anchor="middle" x="337" y="1170" fill="black" stroke="black" style="font-family: Monaco, Menlo, Consolas, 'Courier New', monospace;">B29</text></a><rect x="317" y="1510" width="40" height="40" r="0" rx="0" ry="0" fill="white" stroke="black" stroke-width="" stroke-opacity="" stroke-dasharray=""></rect><a xmlns:xlink="http://www.w3.org/1999/xlink" xlink:href="#ir-B30"><text dominant-baseline="middle" text-anchor="middle" x="337" y="1530" fill="black" stroke="black" style="font-family: Monaco, Menlo, Consolas, 'Courier New', monospace;">B30</text></a><rect x="322" y="1570" width="40" height="40" r="0" rx="0" ry="0" fill="white" stroke="black" stroke-width="" stroke-opacity="" stroke-dasharray=""></rect><a xmlns:xlink="http://www.w3.org/1999/xlink" xlink:href="#ir-B31"><text dominant-baseline="middle" text-anchor="middle" x="342" y="1590" fill="black" stroke="black" style="font-family: Monaco, Menlo, Consolas, 'Courier New', monospace;">B31</text></a><rect x="256" y="1630" width="40" height="40" r="0" rx="0" ry="0" fill="#FCBBA1" stroke="black" stroke-width="" stroke-opacity="" stroke-dasharray=""></rect><a xmlns:xlink="http://www.w3.org/1999/xlink" xlink:href="#ir-B32"><text dominant-baseline="middle" text-anchor="middle" x="276" y="1650" fill="black" stroke="black" style="font-family: Monaco, Menlo, Consolas, 'Courier New', monospace;">B32</text></a><rect x="235" y="1690" width="40" height="40" r="0" rx="0" ry="0" fill="#FCBBA1" stroke="black" stroke-width="" stroke-opacity="" stroke-dasharray=""></rect><a xmlns:xlink="http://www.w3.org/1999/xlink" xlink:href="#ir-B33"><text dominant-baseline="middle" text-anchor="middle" x="255" y="1710" fill="black" stroke="black" style="font-family: Monaco, Menlo, Consolas, 'Courier New', monospace;">B33</text></a><rect x="233" y="1030" width="40" height="40" r="0" rx="0" ry="0" fill="white" stroke="black" stroke-width="" stroke-opacity="" stroke-dasharray=""></rect><a xmlns:xlink="http://www.w3.org/1999/xlink" xlink:href="#ir-B34"><text dominant-baseline="middle" text-anchor="middle" x="253" y="1050" fill="black" stroke="black" style="font-family: Monaco, Menlo, Consolas, 'Courier New', monospace;">B34</text></a><rect x="224" y="10" width="40" height="40" r="0" rx="0" ry="0" fill="white" stroke="black" stroke-width="" stroke-opacity="" stroke-dasharray=""></rect><a xmlns:xlink="http://www.w3.org/1999/xlink" xlink:href="#ir-B35"><text dominant-baseline="middle" text-anchor="middle" x="244" y="30" fill="black" stroke="black" style="font-family: Monaco, Menlo, Consolas, 'Courier New', monospace;">B35</text></a><path d="M 49.000 50.000 L 315.000 70.000 L 305.748 66.205 M 305.285 72.368 L 315.000 70.000" style="stroke: black;" fill="none"></path><path d="M 315.000 110.000 L 315.000 130.000 L 318.090 120.489 M 311.910 120.489 L 315.000 130.000" style="stroke: black;" fill="none"></path><path d="M 315.000 170.000 L 314.000 190.000 L 317.561 180.656 M 311.389 180.347 L 314.000 190.000" style="stroke: black;" fill="none"></path><path d="M 314.000 230.000 L 182.000 250.000 L 191.866 251.631 M 190.940 245.520 L 182.000 250.000" style="stroke: black;" fill="none"></path><path d="M 182.000 290.000 L 274.000 310.000 L 265.363 304.960 M 264.050 310.999 L 274.000 310.000" style="stroke: black;" fill="none"></path><path d="M 274.000 350.000 L 274.000 370.000 L 277.090 360.489 M 270.910 360.489 L 274.000 370.000" style="stroke: black;" fill="none"></path><path d="M 274.000 410.000 L 178.000 430.000 L 187.941 431.085 M 186.680 425.035 L 178.000 430.000" style="stroke: black;" fill="none"></path><path d="M 178.000 470.000 L 253.000 490.000 L 244.607 484.564 M 243.014 490.535 L 253.000 490.000" style="stroke: black;" fill="none"></path><path d="M 112.000 1430.000 L 112.000 1450.000 L 115.090 1440.489 M 108.910 1440.489 L 112.000 1450.000" style="stroke: black;" fill="none"></path><path d="M 253.000 530.000 L 233.000 550.000 L 241.910 545.460 M 237.540 541.090 L 233.000 550.000" style="stroke: black;" fill="none"></path><path d="M 233.000 590.000 L 173.000 610.000 L 183.000 609.924 M 181.045 604.061 L 173.000 610.000" style="stroke: black;" fill="none"></path><path d="M 233.000 590.000 L 233.000 610.000 L 236.090 600.489 M 229.910 600.489 L 233.000 610.000" style="stroke: black;" fill="none"></path><path d="M 173.000 650.000 L 156.000 670.000 L 164.514 664.755 M 159.805 660.752 L 156.000 670.000" style="stroke: black;" fill="none"></path><path d="M 156.000 710.000 L 153.000 730.000 L 157.467 721.053 M 151.355 720.136 L 153.000 730.000" style="stroke: black;" fill="none"></path><path d="M 153.000 770.000 L 153.000 790.000 L 156.090 780.489 M 149.910 780.489 L 153.000 790.000" style="stroke: black;" fill="none"></path><path d="M 153.000 830.000 L 193.000 850.000 L 185.875 842.983 M 183.112 848.511 L 193.000 850.000" style="stroke: black;" fill="none"></path><path d="M 193.000 890.000 L 193.000 910.000 L 196.090 900.489 M 189.910 900.489 L 193.000 910.000" style="stroke: black;" fill="none"></path><path d="M 193.000 950.000 L 233.000 970.000 L 225.875 962.983 M 223.112 968.511 L 233.000 970.000" style="stroke: black;" fill="none"></path><path d="M 233.000 1010.000 L 193.000 1030.000 L 202.888 1028.511 M 200.125 1022.983 L 193.000 1030.000" style="stroke: black;" fill="none"></path><path d="M 233.000 1010.000 L 253.000 1030.000 L 248.460 1021.090 M 244.090 1025.460 L 253.000 1030.000" style="stroke: black;" fill="none"></path><path d="M 193.000 1070.000 L 232.000 1090.000 L 224.947 1082.910 M 222.127 1088.410 L 232.000 1090.000" style="stroke: black;" fill="none"></path><path d="M 232.000 1130.000 L 214.000 1150.000 L 222.659 1144.998 M 218.065 1140.864 L 214.000 1150.000" style="stroke: black;" fill="none"></path><path d="M 232.000 1130.000 L 337.000 1150.000 L 328.236 1145.185 M 327.079 1151.256 L 337.000 1150.000" style="stroke: black;" fill="none"></path><path d="M 214.000 1190.000 L 214.000 1210.000 L 217.090 1200.489 M 210.910 1200.489 L 214.000 1210.000" style="stroke: black;" fill="none"></path><path d="M 214.000 1190.000 L 30.000 1210.000 L 39.789 1212.044 M 39.121 1205.900 L 30.000 1210.000" style="stroke: black;" fill="none"></path><path d="M 214.000 1250.000 L 179.000 1270.000 L 188.791 1267.964 M 185.724 1262.598 L 179.000 1270.000" style="stroke: black;" fill="none"></path><path d="M 179.000 1310.000 L 195.000 1330.000 L 191.472 1320.643 M 186.646 1324.504 L 195.000 1330.000" style="stroke: black;" fill="none"></path><path d="M 195.000 1370.000 L 276.000 1390.000 L 267.507 1384.720 M 266.026 1390.720 L 276.000 1390.000" style="stroke: black;" fill="none"></path><path d="M 195.000 1370.000 L 112.000 1390.000 L 121.970 1390.776 M 120.522 1384.768 L 112.000 1390.000" style="stroke: black;" fill="none"></path><path d="M 276.000 1430.000 L 276.000 1450.000 L 279.090 1440.489 M 272.910 1440.489 L 276.000 1450.000" style="stroke: black;" fill="none"></path><path d="M 276.000 1490.000 L 337.000 1510.000 L 328.926 1504.101 M 327.000 1509.973 L 337.000 1510.000" style="stroke: black;" fill="none"></path><path d="M 337.000 1550.000 L 342.000 1570.000 L 342.691 1560.024 M 336.695 1561.523 L 342.000 1570.000" style="stroke: black;" fill="none"></path><path d="M 342.000 1610.000 L 276.000 1630.000 L 285.998 1630.199 M 284.206 1624.284 L 276.000 1630.000" style="stroke: black;" fill="none"></path><path d="M 276.000 1670.000 L 255.000 1690.000 L 264.018 1685.679 M 259.756 1681.203 L 255.000 1690.000" style="stroke: black;" fill="none"></path><path d="M 255.000 1690.000 L 276.000 1670.000 L 266.982 1674.321 M 271.244 1678.797 L 276.000 1670.000" style="stroke: red;" fill="none"></path><path d="M 49.000 50.000 L 51.000 1129.000 L 58.000 1150.000 L 72.000 1309.000 L 93.000 1369.000 L 112.000 1390.000 L 107.911 1380.874 M 103.328 1385.021 L 112.000 1390.000" style="stroke: black;" fill="none"></path><path d="M 315.000 110.000 L 343.000 130.000 L 365.000 250.000 L 386.000 430.000 L 386.000 469.000 L 386.000 490.000 L 386.000 529.000 L 386.000 550.000 L 386.000 589.000 L 386.000 610.000 L 386.000 649.000 L 386.000 670.000 L 386.000 709.000 L 386.000 730.000 L 386.000 769.000 L 386.000 790.000 L 386.000 829.000 L 386.000 850.000 L 386.000 889.000 L 386.000 910.000 L 386.000 949.000 L 386.000 970.000 L 386.000 1009.000 L 386.000 1030.000 L 386.000 1069.000 L 386.000 1090.000 L 386.000 1129.000 L 386.000 1150.000 L 386.000 1189.000 L 386.000 1210.000 L 386.000 1249.000 L 386.000 1270.000 L 386.000 1309.000 L 386.000 1330.000 L 386.000 1369.000 L 386.000 1390.000 L 386.000 1429.000 L 360.000 1450.000 L 346.000 1489.000 L 337.000 1510.000 L 343.587 1502.476 M 337.906 1500.041 L 337.000 1510.000" style="stroke: black;" fill="none"></path><path d="M 314.000 230.000 L 323.000 250.000 L 344.000 370.000 L 344.000 409.000 L 337.000 1150.000 L 340.180 1140.519 M 334.000 1140.461 L 337.000 1150.000" style="stroke: black;" fill="none"></path><path d="M 253.000 490.000 L 302.000 469.000 L 314.000 230.000 L 310.437 239.344 M 316.609 239.654 L 314.000 230.000" style="stroke: red;" fill="none"></path><path d="M 182.000 290.000 L 72.000 490.000 L 58.000 769.000 L 30.000 790.000 L 30.000 829.000 L 30.000 850.000 L 30.000 889.000 L 30.000 910.000 L 30.000 949.000 L 30.000 970.000 L 30.000 1009.000 L 30.000 1030.000 L 30.000 1069.000 L 30.000 1090.000 L 30.000 1129.000 L 30.000 1150.000 L 30.000 1189.000 L 30.000 1210.000 L 33.090 1200.489 M 26.910 1200.489 L 30.000 1210.000" style="stroke: black;" fill="none"></path><path d="M 274.000 350.000 L 323.000 370.000 L 337.000 409.000 L 365.000 430.000 L 367.000 1450.000 L 367.000 1489.000 L 365.000 1549.000 L 342.000 1570.000 L 351.107 1565.869 M 346.940 1561.305 L 342.000 1570.000" style="stroke: black;" fill="none"></path><path d="M 274.000 410.000 L 281.000 490.000 L 281.000 529.000 L 281.000 1030.000 L 281.000 1069.000 L 281.000 1090.000 L 281.000 1129.000 L 277.000 1150.000 L 263.000 1249.000 L 258.000 1270.000 L 244.000 1369.000 L 163.000 1429.000 L 112.000 1450.000 L 121.971 1449.236 M 119.618 1443.521 L 112.000 1450.000" style="stroke: black;" fill="none"></path><path d="M 178.000 470.000 L 93.000 730.000 L 93.000 769.000 L 93.000 790.000 L 93.000 829.000 L 93.000 850.000 L 93.000 889.000 L 93.000 910.000 L 93.000 949.000 L 93.000 970.000 L 93.000 1009.000 L 93.000 1030.000 L 93.000 1069.000 L 93.000 1090.000 L 93.000 1129.000 L 93.000 1150.000 L 93.000 1189.000 L 93.000 1210.000 L 93.000 1249.000 L 100.000 1270.000 L 112.000 1390.000 L 114.128 1380.229 M 107.979 1380.844 L 112.000 1390.000" style="stroke: black;" fill="none"></path><path d="M 30.000 1250.000 L 51.000 1429.000 L 112.000 1450.000 L 104.013 1443.982 M 102.002 1449.826 L 112.000 1450.000" style="stroke: black;" fill="none"></path><path d="M 156.000 710.000 L 114.000 730.000 L 100.000 769.000 L 72.000 790.000 L 58.000 1129.000 L 30.000 1210.000 L 36.028 1202.021 M 30.187 1200.002 L 30.000 1210.000" style="stroke: black;" fill="none"></path><path d="M 193.000 850.000 L 181.000 730.000 L 156.000 710.000 L 161.496 718.354 M 165.357 713.528 L 156.000 710.000" style="stroke: red;" fill="none"></path><path d="M 153.000 770.000 L 114.000 790.000 L 100.000 1249.000 L 72.000 1330.000 L 72.000 1369.000 L 73.000 1429.000 L 112.000 1450.000 L 105.091 1442.770 M 102.161 1448.212 L 112.000 1450.000" style="stroke: black;" fill="none"></path><path d="M 153.000 830.000 L 121.000 1369.000 L 112.000 1390.000 L 118.587 1382.476 M 112.906 1380.041 L 112.000 1390.000" style="stroke: black;" fill="none"></path><path d="M 233.000 650.000 L 233.000 970.000 L 236.090 960.489 M 229.910 960.489 L 233.000 970.000" style="stroke: black;" fill="none"></path><path d="M 276.000 1390.000 L 265.000 1270.000 L 256.000 1249.000 L 242.000 1150.000 L 232.000 1130.000 L 233.489 1139.888 M 239.017 1137.125 L 232.000 1130.000" style="stroke: red;" fill="none"></path><path d="M 214.000 1250.000 L 223.000 1330.000 L 237.000 1669.000 L 255.000 1690.000 L 251.157 1680.768 M 246.464 1684.790 L 255.000 1690.000" style="stroke: black;" fill="none"></path><path d="M 179.000 1310.000 L 156.000 1330.000 L 140.000 1429.000 L 112.000 1450.000 L 121.463 1446.766 M 117.754 1441.822 L 112.000 1450.000" style="stroke: black;" fill="none"></path><path d="M 337.000 1190.000 L 337.000 1510.000 L 340.090 1500.489 M 333.910 1500.489 L 337.000 1510.000" style="stroke: black;" fill="none"></path><path d="M 253.000 1070.000 L 274.000 1129.000 L 284.000 1150.000 L 318.000 1489.000 L 337.000 1510.000 L 332.911 1500.874 M 328.328 1505.021 L 337.000 1510.000" style="stroke: black;" fill="none"></path></svg>