<?xml version="1.0" standalone="no"?>
<!DOCTYPE svg PUBLIC "-//W3C//DTD SVG 1.1//EN"
  "http://www.w3.org/Graphics/SVG/1.1/DTD/svg11.dtd">
<svg height="650" width="655" version="1.1" xmlns="http://www.w3.org/2000/svg">
  <style type="text/css" >
  <![CDATA[
    @import url(http://fonts.googleapis.com/css?family=Inconsolata);

    text {
      font-size: 12pt;
      font-family: Inconsolata;
    }
  ]]>
  </style>
  <g fill-opacity="0.4" stroke-opacity="0.4"></g><g stroke-dasharray="5,5"></g><rect x="495" y="10" width="40" height="40" r="0" rx="0" ry="0" fill="#FCBBA1" stroke="black" stroke-width="" stroke-opacity="" stroke-dasharray=""></rect><text dominant-baseline="middle" text-anchor="middle" x="515" y="30" fill="black" stroke="black" style="font-family: Inconsolata, monospace;">B0</text><rect x="133" y="70" width="40" height="40" r="0" rx="0" ry="0" fill="#FCBBA1" stroke="black" stroke-width="" stroke-opacity="" stroke-dasharray=""></rect><a xmlns:xlink="http://www.w3.org/1999/xlink" xlink:href="#ir-B1"><text dominant-baseline="middle" text-anchor="middle" x="153" y="90" fill="black" stroke="black" style="font-family: Inconsolata, monospace;">B1</text></a><rect x="133" y="130" width="40" height="40" r="0" rx="0" ry="0" fill="#FC9272" stroke="black" stroke-width="" stroke-opacity="" stroke-dasharray=""></rect><a xmlns:xlink="http://www.w3.org/1999/xlink" xlink:href="#ir-B2"><text dominant-baseline="middle" text-anchor="middle" x="153" y="150" fill="black" stroke="black" style="font-family: Inconsolata, monospace;">B2</text></a><rect x="92" y="190" width="40" height="40" r="0" rx="0" ry="0" fill="#FB6A4A" stroke="black" stroke-width="" stroke-opacity="" stroke-dasharray=""></rect><a xmlns:xlink="http://www.w3.org/1999/xlink" xlink:href="#ir-B3"><text dominant-baseline="middle" text-anchor="middle" x="112" y="210" fill="black" stroke="black" style="font-family: Inconsolata, monospace;">B3</text></a><rect x="172" y="250" width="40" height="40" r="0" rx="0" ry="0" fill="#FB6A4A" stroke="black" stroke-width="" stroke-opacity="" stroke-dasharray=""></rect><a xmlns:xlink="http://www.w3.org/1999/xlink" xlink:href="#ir-B4"><text dominant-baseline="middle" text-anchor="middle" x="192" y="270" fill="black" stroke="black" style="font-family: Inconsolata, monospace;">B4</text></a><rect x="133" y="310" width="40" height="40" r="0" rx="0" ry="0" fill="#EF3B2C" stroke="black" stroke-width="" stroke-opacity="" stroke-dasharray=""></rect><a xmlns:xlink="http://www.w3.org/1999/xlink" xlink:href="#ir-B5"><text dominant-baseline="middle" text-anchor="middle" x="153" y="330" fill="black" stroke="black" style="font-family: Inconsolata, monospace;">B5</text></a><rect x="154" y="370" width="40" height="40" r="0" rx="0" ry="0" fill="#EF3B2C" stroke="black" stroke-width="" stroke-opacity="" stroke-dasharray=""></rect><a xmlns:xlink="http://www.w3.org/1999/xlink" xlink:href="#ir-B6"><text dominant-baseline="middle" text-anchor="middle" x="174" y="390" fill="black" stroke="black" style="font-family: Inconsolata, monospace;">B6</text></a><rect x="355" y="430" width="40" height="40" r="0" rx="0" ry="0" fill="#CB181D" stroke="black" stroke-width="" stroke-opacity="" stroke-dasharray=""></rect><a xmlns:xlink="http://www.w3.org/1999/xlink" xlink:href="#ir-B7"><text dominant-baseline="middle" text-anchor="middle" x="375" y="450" fill="black" stroke="black" style="font-family: Inconsolata, monospace;">B7</text></a><rect x="455" y="490" width="40" height="40" r="0" rx="0" ry="0" fill="#FCBBA1" stroke="black" stroke-width="" stroke-opacity="" stroke-dasharray=""></rect><a xmlns:xlink="http://www.w3.org/1999/xlink" xlink:href="#ir-B8"><text dominant-baseline="middle" text-anchor="middle" x="475" y="510" fill="black" stroke="black" style="font-family: Inconsolata, monospace;">B8</text></a><rect x="193" y="310" width="40" height="40" r="0" rx="0" ry="0" fill="#FCBBA1" stroke="black" stroke-width="" stroke-opacity="" stroke-dasharray=""></rect><a xmlns:xlink="http://www.w3.org/1999/xlink" xlink:href="#ir-B9"><text dominant-baseline="middle" text-anchor="middle" x="213" y="330" fill="black" stroke="black" style="font-family: Inconsolata, monospace;">B9</text></a><rect x="274" y="550" width="40" height="40" r="0" rx="0" ry="0" fill="#FCBBA1" stroke="black" stroke-width="" stroke-opacity="" stroke-dasharray=""></rect><a xmlns:xlink="http://www.w3.org/1999/xlink" xlink:href="#ir-B10"><text dominant-baseline="middle" text-anchor="middle" x="294" y="570" fill="black" stroke="black" style="font-family: Inconsolata, monospace;">B10</text></a><rect x="270" y="10" width="40" height="40" r="0" rx="0" ry="0" fill="#A50F15" stroke="black" stroke-width="" stroke-opacity="" stroke-dasharray=""></rect><a xmlns:xlink="http://www.w3.org/1999/xlink" xlink:href="#ir-B11"><text dominant-baseline="middle" text-anchor="middle" x="290" y="30" fill="black" stroke="black" style="font-family: Inconsolata, monospace;">B11</text></a><rect x="270" y="70" width="40" height="40" r="0" rx="0" ry="0" fill="#CB181D" stroke="black" stroke-width="" stroke-opacity="" stroke-dasharray=""></rect><a xmlns:xlink="http://www.w3.org/1999/xlink" xlink:href="#ir-B12"><text dominant-baseline="middle" text-anchor="middle" x="290" y="90" fill="black" stroke="black" style="font-family: Inconsolata, monospace;">B12</text></a><rect x="313" y="130" width="40" height="40" r="0" rx="0" ry="0" fill="#CB181D" stroke="black" stroke-width="" stroke-opacity="" stroke-dasharray=""></rect><a xmlns:xlink="http://www.w3.org/1999/xlink" xlink:href="#ir-B13"><text dominant-baseline="middle" text-anchor="middle" x="333" y="150" fill="black" stroke="black" style="font-family: Inconsolata, monospace;">B13</text></a><rect x="373" y="190" width="40" height="40" r="0" rx="0" ry="0" fill="#A50F15" stroke="black" stroke-width="" stroke-opacity="" stroke-dasharray=""></rect><a xmlns:xlink="http://www.w3.org/1999/xlink" xlink:href="#ir-B14"><text dominant-baseline="middle" text-anchor="middle" x="393" y="210" fill="black" stroke="black" style="font-family: Inconsolata, monospace;">B14</text></a><rect x="394" y="250" width="40" height="40" r="0" rx="0" ry="0" fill="#A50F15" stroke="black" stroke-width="" stroke-opacity="" stroke-dasharray=""></rect><a xmlns:xlink="http://www.w3.org/1999/xlink" xlink:href="#ir-B15"><text dominant-baseline="middle" text-anchor="middle" x="414" y="270" fill="black" stroke="black" style="font-family: Inconsolata, monospace;">B15</text></a><rect x="455" y="310" width="40" height="40" r="0" rx="0" ry="0" fill="#A50F15" stroke="black" stroke-width="" stroke-opacity="" stroke-dasharray=""></rect><a xmlns:xlink="http://www.w3.org/1999/xlink" xlink:href="#ir-B16"><text dominant-baseline="middle" text-anchor="middle" x="475" y="330" fill="black" stroke="black" style="font-family: Inconsolata, monospace;">B16</text></a><rect x="394" y="70" width="40" height="40" r="0" rx="0" ry="0" fill="#A50F15" stroke="black" stroke-width="" stroke-opacity="" stroke-dasharray=""></rect><a xmlns:xlink="http://www.w3.org/1999/xlink" xlink:href="#ir-B17"><text dominant-baseline="middle" text-anchor="middle" x="414" y="90" fill="black" stroke="black" style="font-family: Inconsolata, monospace;">B17</text></a><rect x="373" y="130" width="40" height="40" r="0" rx="0" ry="0" fill="#CB181D" stroke="black" stroke-width="" stroke-opacity="" stroke-dasharray=""></rect><a xmlns:xlink="http://www.w3.org/1999/xlink" xlink:href="#ir-B18"><text dominant-baseline="middle" text-anchor="middle" x="393" y="150" fill="black" stroke="black" style="font-family: Inconsolata, monospace;">B18</text></a><rect x="253" y="130" width="40" height="40" r="0" rx="0" ry="0" fill="#CB181D" stroke="black" stroke-width="" stroke-opacity="" stroke-dasharray=""></rect><a xmlns:xlink="http://www.w3.org/1999/xlink" xlink:href="#ir-B19"><text dominant-baseline="middle" text-anchor="middle" x="273" y="150" fill="black" stroke="black" style="font-family: Inconsolata, monospace;">B19</text></a><rect x="313" y="190" width="40" height="40" r="0" rx="0" ry="0" fill="#CB181D" stroke="black" stroke-width="" stroke-opacity="" stroke-dasharray=""></rect><a xmlns:xlink="http://www.w3.org/1999/xlink" xlink:href="#ir-B20"><text dominant-baseline="middle" text-anchor="middle" x="333" y="210" fill="black" stroke="black" style="font-family: Inconsolata, monospace;">B20</text></a><rect x="313" y="250" width="40" height="40" r="0" rx="0" ry="0" fill="#EF3B2C" stroke="black" stroke-width="" stroke-opacity="" stroke-dasharray=""></rect><a xmlns:xlink="http://www.w3.org/1999/xlink" xlink:href="#ir-B21"><text dominant-baseline="middle" text-anchor="middle" x="333" y="270" fill="black" stroke="black" style="font-family: Inconsolata, monospace;">B21</text></a><rect x="197" y="190" width="40" height="40" r="0" rx="0" ry="0" fill="#CB181D" stroke="black" stroke-width="" stroke-opacity="" stroke-dasharray=""></rect><a xmlns:xlink="http://www.w3.org/1999/xlink" xlink:href="#ir-B22"><text dominant-baseline="middle" text-anchor="middle" x="217" y="210" fill="black" stroke="black" style="font-family: Inconsolata, monospace;">B22</text></a><rect x="232" y="250" width="40" height="40" r="0" rx="0" ry="0" fill="#CB181D" stroke="black" stroke-width="" stroke-opacity="" stroke-dasharray=""></rect><a xmlns:xlink="http://www.w3.org/1999/xlink" xlink:href="#ir-B23"><text dominant-baseline="middle" text-anchor="middle" x="252" y="270" fill="black" stroke="black" style="font-family: Inconsolata, monospace;">B23</text></a><rect x="253" y="310" width="40" height="40" r="0" rx="0" ry="0" fill="#CB181D" stroke="black" stroke-width="" stroke-opacity="" stroke-dasharray=""></rect><a xmlns:xlink="http://www.w3.org/1999/xlink" xlink:href="#ir-B24"><text dominant-baseline="middle" text-anchor="middle" x="273" y="330" fill="black" stroke="black" style="font-family: Inconsolata, monospace;">B24</text></a><rect x="274" y="370" width="40" height="40" r="0" rx="0" ry="0" fill="#CB181D" stroke="black" stroke-width="" stroke-opacity="" stroke-dasharray=""></rect><a xmlns:xlink="http://www.w3.org/1999/xlink" xlink:href="#ir-B25"><text dominant-baseline="middle" text-anchor="middle" x="294" y="390" fill="black" stroke="black" style="font-family: Inconsolata, monospace;">B25</text></a><rect x="415" y="430" width="40" height="40" r="0" rx="0" ry="0" fill="#CB181D" stroke="black" stroke-width="" stroke-opacity="" stroke-dasharray=""></rect><a xmlns:xlink="http://www.w3.org/1999/xlink" xlink:href="#ir-B26"><text dominant-baseline="middle" text-anchor="middle" x="435" y="450" fill="black" stroke="black" style="font-family: Inconsolata, monospace;">B26</text></a><rect x="193" y="130" width="40" height="40" r="0" rx="0" ry="0" fill="#CB181D" stroke="black" stroke-width="" stroke-opacity="" stroke-dasharray=""></rect><a xmlns:xlink="http://www.w3.org/1999/xlink" xlink:href="#ir-B27"><text dominant-baseline="middle" text-anchor="middle" x="213" y="150" fill="black" stroke="black" style="font-family: Inconsolata, monospace;">B27</text></a><rect x="31" y="190" width="40" height="40" r="0" rx="0" ry="0" fill="white" stroke="black" stroke-width="" stroke-opacity="" stroke-dasharray=""></rect><a xmlns:xlink="http://www.w3.org/1999/xlink" xlink:href="#ir-B28"><text dominant-baseline="middle" text-anchor="middle" x="51" y="210" fill="black" stroke="black" style="font-family: Inconsolata, monospace;">B28</text></a><rect x="52" y="250" width="40" height="40" r="0" rx="0" ry="0" fill="white" stroke="black" stroke-width="" stroke-opacity="" stroke-dasharray=""></rect><a xmlns:xlink="http://www.w3.org/1999/xlink" xlink:href="#ir-B29"><text dominant-baseline="middle" text-anchor="middle" x="72" y="270" fill="black" stroke="black" style="font-family: Inconsolata, monospace;">B29</text></a><rect x="11" y="310" width="40" height="40" r="0" rx="0" ry="0" fill="#FCBBA1" stroke="black" stroke-width="" stroke-opacity="" stroke-dasharray=""></rect><a xmlns:xlink="http://www.w3.org/1999/xlink" xlink:href="#ir-B30"><text dominant-baseline="middle" text-anchor="middle" x="31" y="330" fill="black" stroke="black" style="font-family: Inconsolata, monospace;">B30</text></a><rect x="73" y="370" width="40" height="40" r="0" rx="0" ry="0" fill="white" stroke="black" stroke-width="" stroke-opacity="" stroke-dasharray=""></rect><a xmlns:xlink="http://www.w3.org/1999/xlink" xlink:href="#ir-B31"><text dominant-baseline="middle" text-anchor="middle" x="93" y="390" fill="black" stroke="black" style="font-family: Inconsolata, monospace;">B31</text></a><rect x="214" y="430" width="40" height="40" r="0" rx="0" ry="0" fill="#FCBBA1" stroke="black" stroke-width="" stroke-opacity="" stroke-dasharray=""></rect><a xmlns:xlink="http://www.w3.org/1999/xlink" xlink:href="#ir-B32"><text dominant-baseline="middle" text-anchor="middle" x="234" y="450" fill="black" stroke="black" style="font-family: Inconsolata, monospace;">B32</text></a><rect x="214" y="370" width="40" height="40" r="0" rx="0" ry="0" fill="#FCBBA1" stroke="black" stroke-width="" stroke-opacity="" stroke-dasharray=""></rect><a xmlns:xlink="http://www.w3.org/1999/xlink" xlink:href="#ir-B33"><text dominant-baseline="middle" text-anchor="middle" x="234" y="390" fill="black" stroke="black" style="font-family: Inconsolata, monospace;">B33</text></a><rect x="112" y="250" width="40" height="40" r="0" rx="0" ry="0" fill="#FCBBA1" stroke="black" stroke-width="" stroke-opacity="" stroke-dasharray=""></rect><a xmlns:xlink="http://www.w3.org/1999/xlink" xlink:href="#ir-B34"><text dominant-baseline="middle" text-anchor="middle" x="132" y="270" fill="black" stroke="black" style="font-family: Inconsolata, monospace;">B34</text></a><rect x="555" y="10" width="40" height="40" r="0" rx="0" ry="0" fill="white" stroke="black" stroke-width="" stroke-opacity="" stroke-dasharray=""></rect><a xmlns:xlink="http://www.w3.org/1999/xlink" xlink:href="#ir-B35"><text dominant-baseline="middle" text-anchor="middle" x="575" y="30" fill="black" stroke="black" style="font-family: Inconsolata, monospace;">B35</text></a><path d="M 515.000 50.000 L 153.000 70.000 L 162.667 72.561 M 162.326 66.390 L 153.000 70.000" style="stroke: black;" fill="none"></path><path d="M 153.000 110.000 L 153.000 130.000 L 156.090 120.489 M 149.910 120.489 L 153.000 130.000" style="stroke: black;" fill="none"></path><path d="M 153.000 170.000 L 112.000 190.000 L 121.903 188.608 M 119.193 183.053 L 112.000 190.000" style="stroke: black;" fill="none"></path><path d="M 112.000 230.000 L 192.000 250.000 L 183.523 244.695 M 182.024 250.691 L 192.000 250.000" style="stroke: black;" fill="none"></path><path d="M 112.000 230.000 L 72.000 250.000 L 81.888 248.511 M 79.125 242.983 L 72.000 250.000" style="stroke: black;" fill="none"></path><path d="M 192.000 290.000 L 153.000 310.000 L 162.873 308.410 M 160.053 302.910 L 153.000 310.000" style="stroke: black;" fill="none"></path><path d="M 192.000 290.000 L 213.000 310.000 L 208.244 301.203 M 203.982 305.679 L 213.000 310.000" style="stroke: black;" fill="none"></path><path d="M 153.000 350.000 L 174.000 370.000 L 169.244 361.203 M 164.982 365.679 L 174.000 370.000" style="stroke: black;" fill="none"></path><path d="M 153.000 350.000 L 93.000 370.000 L 103.000 369.924 M 101.045 364.061 L 93.000 370.000" style="stroke: black;" fill="none"></path><path d="M 174.000 410.000 L 375.000 430.000 L 365.842 425.983 M 365.230 432.133 L 375.000 430.000" style="stroke: black;" fill="none"></path><path d="M 375.000 470.000 L 475.000 490.000 L 466.280 485.105 M 465.068 491.165 L 475.000 490.000" style="stroke: black;" fill="none"></path><path d="M 475.000 530.000 L 294.000 550.000 L 303.792 552.027 M 303.114 545.884 L 294.000 550.000" style="stroke: black;" fill="none"></path><path d="M 290.000 50.000 L 290.000 70.000 L 293.090 60.489 M 286.910 60.489 L 290.000 70.000" style="stroke: black;" fill="none"></path><path d="M 290.000 110.000 L 333.000 130.000 L 325.680 123.187 M 323.073 128.791 L 333.000 130.000" style="stroke: black;" fill="none"></path><path d="M 290.000 110.000 L 273.000 130.000 L 281.514 124.755 M 276.805 120.752 L 273.000 130.000" style="stroke: black;" fill="none"></path><path d="M 333.000 170.000 L 393.000 190.000 L 384.955 184.061 M 383.000 189.924 L 393.000 190.000" style="stroke: black;" fill="none"></path><path d="M 393.000 230.000 L 414.000 250.000 L 409.244 241.203 M 404.982 245.679 L 414.000 250.000" style="stroke: black;" fill="none"></path><path d="M 414.000 290.000 L 475.000 310.000 L 466.926 304.101 M 465.000 309.973 L 475.000 310.000" style="stroke: black;" fill="none"></path><path d="M 414.000 110.000 L 393.000 130.000 L 402.018 125.679 M 397.756 121.203 L 393.000 130.000" style="stroke: black;" fill="none"></path><path d="M 393.000 170.000 L 333.000 190.000 L 343.000 189.924 M 341.045 184.061 L 333.000 190.000" style="stroke: black;" fill="none"></path><path d="M 273.000 170.000 L 333.000 190.000 L 324.955 184.061 M 323.000 189.924 L 333.000 190.000" style="stroke: black;" fill="none"></path><path d="M 333.000 230.000 L 333.000 250.000 L 336.090 240.489 M 329.910 240.489 L 333.000 250.000" style="stroke: black;" fill="none"></path><path d="M 333.000 230.000 L 132.000 250.000 L 141.770 252.133 M 141.158 245.983 L 132.000 250.000" style="stroke: black;" fill="none"></path><path d="M 333.000 250.000 L 217.000 230.000 L 225.847 234.661 M 226.897 228.571 L 217.000 230.000" style="stroke: red;" fill="none"></path><path d="M 217.000 230.000 L 252.000 250.000 L 245.276 242.598 M 242.209 247.964 L 252.000 250.000" style="stroke: black;" fill="none"></path><path d="M 217.000 230.000 L 72.000 250.000 L 81.844 251.762 M 80.999 245.639 L 72.000 250.000" style="stroke: black;" fill="none"></path><path d="M 252.000 290.000 L 273.000 310.000 L 268.244 301.203 M 263.982 305.679 L 273.000 310.000" style="stroke: black;" fill="none"></path><path d="M 252.000 290.000 L 213.000 310.000 L 222.873 308.410 M 220.053 302.910 L 213.000 310.000" style="stroke: black;" fill="none"></path><path d="M 273.000 350.000 L 294.000 370.000 L 289.244 361.203 M 284.982 365.679 L 294.000 370.000" style="stroke: black;" fill="none"></path><path d="M 273.000 350.000 L 234.000 370.000 L 243.873 368.410 M 241.053 362.910 L 234.000 370.000" style="stroke: black;" fill="none"></path><path d="M 294.000 410.000 L 435.000 430.000 L 426.018 425.605 M 425.150 431.724 L 435.000 430.000" style="stroke: black;" fill="none"></path><path d="M 435.000 470.000 L 475.000 490.000 L 467.875 482.983 M 465.112 488.511 L 475.000 490.000" style="stroke: black;" fill="none"></path><path d="M 213.000 170.000 L 51.000 190.000 L 60.818 191.902 M 60.060 185.768 L 51.000 190.000" style="stroke: black;" fill="none"></path><path d="M 213.000 170.000 L 217.000 190.000 L 218.165 180.068 M 212.105 181.280 L 217.000 190.000" style="stroke: black;" fill="none"></path><path d="M 72.000 290.000 L 31.000 310.000 L 40.903 308.608 M 38.193 303.053 L 31.000 310.000" style="stroke: black;" fill="none"></path><path d="M 31.000 350.000 L 93.000 370.000 L 84.897 364.139 M 83.000 370.021 L 93.000 370.000" style="stroke: black;" fill="none"></path><path d="M 93.000 410.000 L 234.000 430.000 L 225.018 425.605 M 224.150 431.724 L 234.000 430.000" style="stroke: black;" fill="none"></path><path d="M 234.000 430.000 L 234.000 410.000 L 230.910 419.511 M 237.090 419.511 L 234.000 410.000" style="stroke: red;" fill="none"></path><path d="M 234.000 410.000 L 234.000 430.000 L 237.090 420.489 M 230.910 420.489 L 234.000 430.000" style="stroke: black;" fill="none"></path><path d="M 132.000 290.000 L 31.000 310.000 L 40.930 311.184 M 39.729 305.121 L 31.000 310.000" style="stroke: black;" fill="none"></path><path d="M 515.000 50.000 L 503.000 349.000 L 484.000 469.000 L 475.000 490.000 L 481.587 482.476 M 475.906 480.041 L 475.000 490.000" style="stroke: black;" fill="none"></path><path d="M 153.000 110.000 L 93.000 130.000 L 12.000 190.000 L 12.000 229.000 L 12.000 250.000 L 12.000 289.000 L 31.000 310.000 L 26.911 300.874 M 22.328 305.021 L 31.000 310.000" style="stroke: black;" fill="none"></path><path d="M 174.000 410.000 L 195.000 469.000 L 294.000 550.000 L 288.596 541.586 M 284.682 546.369 L 294.000 550.000" style="stroke: black;" fill="none"></path><path d="M 213.000 350.000 L 135.000 370.000 L 135.000 409.000 L 174.000 529.000 L 294.000 550.000 L 285.164 545.317 M 284.099 551.404 L 294.000 550.000" style="stroke: black;" fill="none"></path><path d="M 290.000 50.000 L 114.000 70.000 L 112.000 190.000 L 115.248 180.542 M 109.069 180.439 L 112.000 190.000" style="stroke: black;" fill="none"></path><path d="M 375.000 430.000 L 442.000 289.000 L 442.000 250.000 L 442.000 169.000 L 442.000 130.000 L 442.000 109.000 L 442.000 70.000 L 290.000 50.000 L 299.026 54.304 M 299.832 48.177 L 290.000 50.000" style="stroke: red;" fill="none"></path><path d="M 393.000 230.000 L 375.000 250.000 L 361.000 289.000 L 213.000 310.000 L 222.850 311.723 M 221.982 305.604 L 213.000 310.000" style="stroke: black;" fill="none"></path><path d="M 414.000 290.000 L 336.000 370.000 L 303.000 529.000 L 294.000 550.000 L 300.587 542.476 M 294.906 540.041 L 294.000 550.000" style="stroke: black;" fill="none"></path><path d="M 475.000 350.000 L 475.000 490.000 L 478.090 480.489 M 471.910 480.489 L 475.000 490.000" style="stroke: black;" fill="none"></path><path d="M 414.000 110.000 L 421.000 130.000 L 421.000 169.000 L 393.000 190.000 L 402.463 186.766 M 398.754 181.822 L 393.000 190.000" style="stroke: black;" fill="none"></path><path d="M 475.000 310.000 L 463.000 130.000 L 414.000 110.000 L 421.638 116.455 M 423.973 110.733 L 414.000 110.000" style="stroke: red;" fill="none"></path><path d="M 294.000 410.000 L 294.000 550.000 L 297.090 540.489 M 290.910 540.489 L 294.000 550.000" style="stroke: black;" fill="none"></path><path d="M 435.000 430.000 L 315.000 349.000 L 280.000 250.000 L 245.000 190.000 L 213.000 170.000 L 219.427 177.661 M 222.703 172.420 L 213.000 170.000" style="stroke: red;" fill="none"></path><path d="M 51.000 230.000 L 33.000 250.000 L 31.000 310.000 L 34.405 300.598 M 28.228 300.392 L 31.000 310.000" style="stroke: black;" fill="none"></path></svg>