<?xml version="1.0" standalone="no"?>
<!DOCTYPE svg PUBLIC "-//W3C//DTD SVG 1.1//EN"
  "http://www.w3.org/Graphics/SVG/1.1/DTD/svg11.dtd">
<svg height="1250" width="520" version="1.1" xmlns="http://www.w3.org/2000/svg">
  <style type="text/css">
  <![CDATA[
    @import url(http://fonts.googleapis.com/css?family=Inconsolata);

    text {
      font-size: 12pt;
      font-family: Inconsolata;
    }
  ]]>
  </style>
  <g fill-opacity="0.4" stroke-opacity="0.4"></g><g stroke-dasharray="5,5"><path d="M 92.000 230.000 L 152.000 250.000 L 143.955 244.061 M 142.000 249.924 L 152.000 250.000" style="stroke: black;" fill="none"></path><path d="M 276.000 830.000 L 336.000 850.000 L 327.955 844.061 M 326.000 849.924 L 336.000 850.000" style="stroke: black;" fill="none"></path><path d="M 276.000 890.000 L 377.000 910.000 L 368.271 905.121 M 367.070 911.184 L 377.000 910.000" style="stroke: black;" fill="none"></path><path d="M 236.000 950.000 L 317.000 970.000 L 308.507 964.720 M 307.026 970.720 L 317.000 970.000" style="stroke: black;" fill="none"></path><path d="M 277.000 1070.000 L 317.000 1090.000 L 309.875 1082.983 M 307.112 1088.511 L 317.000 1090.000" style="stroke: black;" fill="none"></path><path d="M 317.000 1130.000 L 378.000 1150.000 L 369.926 1144.101 M 368.000 1149.973 L 378.000 1150.000" style="stroke: black;" fill="none"></path><path d="M 317.000 1010.000 L 419.000 1030.000 L 410.262 1025.138 M 409.073 1031.202 L 419.000 1030.000" style="stroke: black;" fill="none"></path><path d="M 192.000 110.000 L 386.000 190.000 L 447.000 1030.000 L 447.000 1069.000 L 378.000 1150.000 L 386.520 1144.764 M 381.815 1140.756 L 378.000 1150.000" style="stroke: black;" fill="none"></path><path d="M 192.000 170.000 L 264.000 190.000 L 346.000 670.000 L 356.000 730.000 L 365.000 790.000 L 377.000 910.000 L 379.128 900.229 M 372.979 900.844 L 377.000 910.000" style="stroke: black;" fill="none"></path><path d="M 377.000 950.000 L 378.000 1150.000 L 381.043 1140.474 M 374.862 1140.505 L 378.000 1150.000" style="stroke: black;" fill="none"></path><path d="M 152.000 290.000 L 220.000 310.000 L 236.000 349.000 L 264.000 370.000 L 358.000 829.000 L 386.000 850.000 L 405.000 910.000 L 419.000 1030.000 L 420.967 1020.195 M 414.829 1020.912 L 419.000 1030.000" style="stroke: black;" fill="none"></path><path d="M 336.000 890.000 L 338.000 949.000 L 345.000 970.000 L 359.000 1129.000 L 378.000 1150.000 L 373.911 1140.874 M 369.328 1145.021 L 378.000 1150.000" style="stroke: black;" fill="none"></path></g><rect x="10" y="10" width="40" height="40" r="0" rx="0" ry="0" fill="white" stroke="black" stroke-width="" stroke-opacity="" stroke-dasharray=""></rect><a xmlns:xlink="http://www.w3.org/1999/xlink" xlink:href="#ir-B0"><text dominant-baseline="middle" text-anchor="middle" x="30" y="30" fill="black" stroke="black" style="font-family: Monaco, Menlo, Consolas, 'Courier New', monospace;">B0</text></a><rect x="172" y="70" width="40" height="40" r="0" rx="0" ry="0" fill="white" stroke="black" stroke-width="" stroke-opacity="" stroke-dasharray=""></rect><a xmlns:xlink="http://www.w3.org/1999/xlink" xlink:href="#ir-B1"><text dominant-baseline="middle" text-anchor="middle" x="192" y="90" fill="black" stroke="black" style="font-family: Monaco, Menlo, Consolas, 'Courier New', monospace;">B1</text></a><rect x="172" y="130" width="40" height="40" r="0" rx="0" ry="0" fill="#FCBBA1" stroke="black" stroke-width="" stroke-opacity="" stroke-dasharray=""></rect><a xmlns:xlink="http://www.w3.org/1999/xlink" xlink:href="#ir-B3"><text dominant-baseline="middle" text-anchor="middle" x="192" y="150" fill="black" stroke="black" style="font-family: Monaco, Menlo, Consolas, 'Courier New', monospace;">B3</text></a><rect x="72" y="190" width="40" height="40" r="0" rx="0" ry="0" fill="#FCBBA1" stroke="black" stroke-width="" stroke-opacity="" stroke-dasharray=""></rect><a xmlns:xlink="http://www.w3.org/1999/xlink" xlink:href="#ir-B5"><text dominant-baseline="middle" text-anchor="middle" x="92" y="210" fill="black" stroke="black" style="font-family: Monaco, Menlo, Consolas, 'Courier New', monospace;">B5</text></a><rect x="72" y="250" width="40" height="40" r="0" rx="0" ry="0" fill="#FCBBA1" stroke="black" stroke-width="" stroke-opacity="" stroke-dasharray=""></rect><a xmlns:xlink="http://www.w3.org/1999/xlink" xlink:href="#ir-B7"><text dominant-baseline="middle" text-anchor="middle" x="92" y="270" fill="black" stroke="black" style="font-family: Monaco, Menlo, Consolas, 'Courier New', monospace;">B7</text></a><rect x="93" y="1030" width="40" height="40" r="0" rx="0" ry="0" fill="white" stroke="black" stroke-width="" stroke-opacity="" stroke-dasharray=""></rect><a xmlns:xlink="http://www.w3.org/1999/xlink" xlink:href="#ir-B8"><text dominant-baseline="middle" text-anchor="middle" x="113" y="1050" fill="black" stroke="black" style="font-family: Monaco, Menlo, Consolas, 'Courier New', monospace;">B8</text></a><rect x="155" y="910" width="40" height="40" r="0" rx="0" ry="0" fill="white" stroke="black" stroke-width="" stroke-opacity="" stroke-dasharray=""></rect><a xmlns:xlink="http://www.w3.org/1999/xlink" xlink:href="#ir-B9"><text dominant-baseline="middle" text-anchor="middle" x="175" y="930" fill="black" stroke="black" style="font-family: Monaco, Menlo, Consolas, 'Courier New', monospace;">B9</text></a><rect x="93" y="1090" width="40" height="40" r="0" rx="0" ry="0" fill="white" stroke="black" stroke-width="" stroke-opacity="" stroke-dasharray=""></rect><a xmlns:xlink="http://www.w3.org/1999/xlink" xlink:href="#ir-B10"><text dominant-baseline="middle" text-anchor="middle" x="113" y="1110" fill="black" stroke="black" style="font-family: Monaco, Menlo, Consolas, 'Courier New', monospace;">B10</text></a><rect x="172" y="310" width="40" height="40" r="0" rx="0" ry="0" fill="#FCBBA1" stroke="black" stroke-width="" stroke-opacity="" stroke-dasharray=""></rect><a xmlns:xlink="http://www.w3.org/1999/xlink" xlink:href="#ir-B11"><text dominant-baseline="middle" text-anchor="middle" x="192" y="330" fill="black" stroke="black" style="font-family: Monaco, Menlo, Consolas, 'Courier New', monospace;">B11</text></a><rect x="172" y="370" width="40" height="40" r="0" rx="0" ry="0" fill="white" stroke="black" stroke-width="" stroke-opacity="" stroke-dasharray=""></rect><a xmlns:xlink="http://www.w3.org/1999/xlink" xlink:href="#ir-B12"><text dominant-baseline="middle" text-anchor="middle" x="192" y="390" fill="black" stroke="black" style="font-family: Monaco, Menlo, Consolas, 'Courier New', monospace;">B12</text></a><rect x="135" y="430" width="40" height="40" r="0" rx="0" ry="0" fill="white" stroke="black" stroke-width="" stroke-opacity="" stroke-dasharray=""></rect><a xmlns:xlink="http://www.w3.org/1999/xlink" xlink:href="#ir-B13"><text dominant-baseline="middle" text-anchor="middle" x="155" y="450" fill="black" stroke="black" style="font-family: Monaco, Menlo, Consolas, 'Courier New', monospace;">B13</text></a><rect x="154" y="490" width="40" height="40" r="0" rx="0" ry="0" fill="#FCBBA1" stroke="black" stroke-width="" stroke-opacity="" stroke-dasharray=""></rect><a xmlns:xlink="http://www.w3.org/1999/xlink" xlink:href="#ir-B14"><text dominant-baseline="middle" text-anchor="middle" x="174" y="510" fill="black" stroke="black" style="font-family: Monaco, Menlo, Consolas, 'Courier New', monospace;">B14</text></a><rect x="104" y="550" width="40" height="40" r="0" rx="0" ry="0" fill="#FCBBA1" stroke="black" stroke-width="" stroke-opacity="" stroke-dasharray=""></rect><a xmlns:xlink="http://www.w3.org/1999/xlink" xlink:href="#ir-B15"><text dominant-baseline="middle" text-anchor="middle" x="124" y="570" fill="black" stroke="black" style="font-family: Monaco, Menlo, Consolas, 'Courier New', monospace;">B15</text></a><rect x="114" y="610" width="40" height="40" r="0" rx="0" ry="0" fill="#FCBBA1" stroke="black" stroke-width="" stroke-opacity="" stroke-dasharray=""></rect><a xmlns:xlink="http://www.w3.org/1999/xlink" xlink:href="#ir-B16"><text dominant-baseline="middle" text-anchor="middle" x="134" y="630" fill="black" stroke="black" style="font-family: Monaco, Menlo, Consolas, 'Courier New', monospace;">B16</text></a><rect x="195" y="670" width="40" height="40" r="0" rx="0" ry="0" fill="#FCBBA1" stroke="black" stroke-width="" stroke-opacity="" stroke-dasharray=""></rect><a xmlns:xlink="http://www.w3.org/1999/xlink" xlink:href="#ir-B17"><text dominant-baseline="middle" text-anchor="middle" x="215" y="690" fill="black" stroke="black" style="font-family: Monaco, Menlo, Consolas, 'Courier New', monospace;">B17</text></a><rect x="216" y="730" width="40" height="40" r="0" rx="0" ry="0" fill="white" stroke="black" stroke-width="" stroke-opacity="" stroke-dasharray=""></rect><a xmlns:xlink="http://www.w3.org/1999/xlink" xlink:href="#ir-B18"><text dominant-baseline="middle" text-anchor="middle" x="236" y="750" fill="black" stroke="black" style="font-family: Monaco, Menlo, Consolas, 'Courier New', monospace;">B18</text></a><rect x="195" y="430" width="40" height="40" r="0" rx="0" ry="0" fill="white" stroke="black" stroke-width="" stroke-opacity="" stroke-dasharray=""></rect><a xmlns:xlink="http://www.w3.org/1999/xlink" xlink:href="#ir-B19"><text dominant-baseline="middle" text-anchor="middle" x="215" y="450" fill="black" stroke="black" style="font-family: Monaco, Menlo, Consolas, 'Courier New', monospace;">B19</text></a><rect x="256" y="790" width="40" height="40" r="0" rx="0" ry="0" fill="white" stroke="black" stroke-width="" stroke-opacity="" stroke-dasharray=""></rect><a xmlns:xlink="http://www.w3.org/1999/xlink" xlink:href="#ir-B20"><text dominant-baseline="middle" text-anchor="middle" x="276" y="810" fill="black" stroke="black" style="font-family: Monaco, Menlo, Consolas, 'Courier New', monospace;">B20</text></a><rect x="256" y="850" width="40" height="40" r="0" rx="0" ry="0" fill="#FCBBA1" stroke="black" stroke-width="" stroke-opacity="" stroke-dasharray=""></rect><a xmlns:xlink="http://www.w3.org/1999/xlink" xlink:href="#ir-B22"><text dominant-baseline="middle" text-anchor="middle" x="276" y="870" fill="black" stroke="black" style="font-family: Monaco, Menlo, Consolas, 'Courier New', monospace;">B22</text></a><rect x="216" y="910" width="40" height="40" r="0" rx="0" ry="0" fill="#FCBBA1" stroke="black" stroke-width="" stroke-opacity="" stroke-dasharray=""></rect><a xmlns:xlink="http://www.w3.org/1999/xlink" xlink:href="#ir-B24"><text dominant-baseline="middle" text-anchor="middle" x="236" y="930" fill="black" stroke="black" style="font-family: Monaco, Menlo, Consolas, 'Courier New', monospace;">B24</text></a><rect x="176" y="970" width="40" height="40" r="0" rx="0" ry="0" fill="#FCBBA1" stroke="black" stroke-width="" stroke-opacity="" stroke-dasharray=""></rect><a xmlns:xlink="http://www.w3.org/1999/xlink" xlink:href="#ir-B26"><text dominant-baseline="middle" text-anchor="middle" x="196" y="990" fill="black" stroke="black" style="font-family: Monaco, Menlo, Consolas, 'Courier New', monospace;">B26</text></a><rect x="257" y="1030" width="40" height="40" r="0" rx="0" ry="0" fill="#FCBBA1" stroke="black" stroke-width="" stroke-opacity="" stroke-dasharray=""></rect><a xmlns:xlink="http://www.w3.org/1999/xlink" xlink:href="#ir-B27"><text dominant-baseline="middle" text-anchor="middle" x="277" y="1050" fill="black" stroke="black" style="font-family: Monaco, Menlo, Consolas, 'Courier New', monospace;">B27</text></a><rect x="297" y="1090" width="40" height="40" r="0" rx="0" ry="0" fill="white" stroke="black" stroke-width="" stroke-opacity="" stroke-dasharray=""></rect><a xmlns:xlink="http://www.w3.org/1999/xlink" xlink:href="#ir-B28"><text dominant-baseline="middle" text-anchor="middle" x="317" y="1110" fill="black" stroke="black" style="font-family: Monaco, Menlo, Consolas, 'Courier New', monospace;">B28</text></a><rect x="357" y="910" width="40" height="40" r="0" rx="0" ry="0" fill="white" stroke="black" stroke-width="" stroke-opacity="" stroke-dasharray=""></rect><a xmlns:xlink="http://www.w3.org/1999/xlink" xlink:href="#ir-B29"><text dominant-baseline="middle" text-anchor="middle" x="377" y="930" fill="black" stroke="black" style="font-family: Monaco, Menlo, Consolas, 'Courier New', monospace;">B29</text></a><rect x="358" y="1150" width="40" height="40" r="0" rx="0" ry="0" fill="white" stroke="black" stroke-width="" stroke-opacity="" stroke-dasharray=""></rect><a xmlns:xlink="http://www.w3.org/1999/xlink" xlink:href="#ir-B30"><text dominant-baseline="middle" text-anchor="middle" x="378" y="1170" fill="black" stroke="black" style="font-family: Monaco, Menlo, Consolas, 'Courier New', monospace;">B30</text></a><rect x="132" y="250" width="40" height="40" r="0" rx="0" ry="0" fill="white" stroke="black" stroke-width="" stroke-opacity="" stroke-dasharray=""></rect><a xmlns:xlink="http://www.w3.org/1999/xlink" xlink:href="#ir-B31"><text dominant-baseline="middle" text-anchor="middle" x="152" y="270" fill="black" stroke="black" style="font-family: Monaco, Menlo, Consolas, 'Courier New', monospace;">B31</text></a><rect x="399" y="1030" width="40" height="40" r="0" rx="0" ry="0" fill="white" stroke="black" stroke-width="" stroke-opacity="" stroke-dasharray=""></rect><a xmlns:xlink="http://www.w3.org/1999/xlink" xlink:href="#ir-B32"><text dominant-baseline="middle" text-anchor="middle" x="419" y="1050" fill="black" stroke="black" style="font-family: Monaco, Menlo, Consolas, 'Courier New', monospace;">B32</text></a><rect x="297" y="970" width="40" height="40" r="0" rx="0" ry="0" fill="white" stroke="black" stroke-width="" stroke-opacity="" stroke-dasharray=""></rect><a xmlns:xlink="http://www.w3.org/1999/xlink" xlink:href="#ir-B33"><text dominant-baseline="middle" text-anchor="middle" x="317" y="990" fill="black" stroke="black" style="font-family: Monaco, Menlo, Consolas, 'Courier New', monospace;">B33</text></a><rect x="316" y="850" width="40" height="40" r="0" rx="0" ry="0" fill="white" stroke="black" stroke-width="" stroke-opacity="" stroke-dasharray=""></rect><a xmlns:xlink="http://www.w3.org/1999/xlink" xlink:href="#ir-B34"><text dominant-baseline="middle" text-anchor="middle" x="336" y="870" fill="black" stroke="black" style="font-family: Monaco, Menlo, Consolas, 'Courier New', monospace;">B34</text></a><rect x="166" y="10" width="40" height="40" r="0" rx="0" ry="0" fill="white" stroke="black" stroke-width="" stroke-opacity="" stroke-dasharray=""></rect><a xmlns:xlink="http://www.w3.org/1999/xlink" xlink:href="#ir-B35"><text dominant-baseline="middle" text-anchor="middle" x="186" y="30" fill="black" stroke="black" style="font-family: Monaco, Menlo, Consolas, 'Courier New', monospace;">B35</text></a><rect x="323" y="10" width="40" height="40" r="0" rx="0" ry="0" fill="white" stroke="black" stroke-width="" stroke-opacity="" stroke-dasharray=""></rect><a xmlns:xlink="http://www.w3.org/1999/xlink" xlink:href="#ir-B36"><text dominant-baseline="middle" text-anchor="middle" x="343" y="30" fill="black" stroke="black" style="font-family: Monaco, Menlo, Consolas, 'Courier New', monospace;">B36</text></a><path d="M 30.000 50.000 L 192.000 70.000 L 182.940 65.768 M 182.182 71.902 L 192.000 70.000" style="stroke: black;" fill="none"></path><path d="M 192.000 110.000 L 192.000 130.000 L 195.090 120.489 M 188.910 120.489 L 192.000 130.000" style="stroke: black;" fill="none"></path><path d="M 192.000 170.000 L 92.000 190.000 L 101.932 191.165 M 100.720 185.105 L 92.000 190.000" style="stroke: black;" fill="none"></path><path d="M 92.000 230.000 L 92.000 250.000 L 95.090 240.489 M 88.910 240.489 L 92.000 250.000" style="stroke: black;" fill="none"></path><path d="M 92.000 290.000 L 192.000 310.000 L 183.280 305.105 M 182.068 311.165 L 192.000 310.000" style="stroke: black;" fill="none"></path><path d="M 113.000 1070.000 L 113.000 1090.000 L 116.090 1080.489 M 109.910 1080.489 L 113.000 1090.000" style="stroke: black;" fill="none"></path><path d="M 192.000 350.000 L 192.000 370.000 L 195.090 360.489 M 188.910 360.489 L 192.000 370.000" style="stroke: black;" fill="none"></path><path d="M 192.000 410.000 L 155.000 430.000 L 164.836 428.196 M 161.897 422.759 L 155.000 430.000" style="stroke: black;" fill="none"></path><path d="M 192.000 410.000 L 215.000 430.000 L 209.851 421.428 M 205.796 426.091 L 215.000 430.000" style="stroke: black;" fill="none"></path><path d="M 155.000 470.000 L 174.000 490.000 L 169.690 480.976 M 165.209 485.233 L 174.000 490.000" style="stroke: black;" fill="none"></path><path d="M 174.000 530.000 L 124.000 550.000 L 133.978 549.337 M 131.683 543.599 L 124.000 550.000" style="stroke: black;" fill="none"></path><path d="M 124.000 590.000 L 134.000 610.000 L 132.511 600.112 M 126.983 602.875 L 134.000 610.000" style="stroke: black;" fill="none"></path><path d="M 134.000 650.000 L 215.000 670.000 L 206.507 664.720 M 205.026 670.720 L 215.000 670.000" style="stroke: black;" fill="none"></path><path d="M 215.000 710.000 L 236.000 730.000 L 231.244 721.203 M 226.982 725.679 L 236.000 730.000" style="stroke: black;" fill="none"></path><path d="M 236.000 770.000 L 276.000 790.000 L 268.875 782.983 M 266.112 788.511 L 276.000 790.000" style="stroke: black;" fill="none"></path><path d="M 276.000 830.000 L 276.000 850.000 L 279.090 840.489 M 272.910 840.489 L 276.000 850.000" style="stroke: black;" fill="none"></path><path d="M 276.000 890.000 L 236.000 910.000 L 245.888 908.511 M 243.125 902.983 L 236.000 910.000" style="stroke: black;" fill="none"></path><path d="M 276.000 890.000 L 175.000 910.000 L 184.930 911.184 M 183.729 905.121 L 175.000 910.000" style="stroke: black;" fill="none"></path><path d="M 236.000 950.000 L 196.000 970.000 L 205.888 968.511 M 203.125 962.983 L 196.000 970.000" style="stroke: black;" fill="none"></path><path d="M 196.000 1010.000 L 277.000 1030.000 L 268.507 1024.720 M 267.026 1030.720 L 277.000 1030.000" style="stroke: black;" fill="none"></path><path d="M 196.000 1010.000 L 113.000 1030.000 L 122.970 1030.776 M 121.522 1024.768 L 113.000 1030.000" style="stroke: black;" fill="none"></path><path d="M 30.000 50.000 L 32.000 889.000 L 59.000 910.000 L 94.000 1009.000 L 113.000 1030.000 L 108.911 1020.874 M 104.328 1025.021 L 113.000 1030.000" style="stroke: black;" fill="none"></path><path d="M 192.000 170.000 L 201.000 190.000 L 243.000 310.000 L 243.000 349.000 L 243.000 430.000 L 243.000 469.000 L 243.000 490.000 L 243.000 529.000 L 243.000 550.000 L 243.000 589.000 L 243.000 610.000 L 243.000 649.000 L 243.000 670.000 L 243.000 709.000 L 197.000 730.000 L 183.000 889.000 L 175.000 910.000 L 181.273 902.213 M 175.498 900.012 L 175.000 910.000" style="stroke: black;" fill="none"></path><path d="M 192.000 310.000 L 192.000 170.000 L 188.910 179.511 M 195.090 179.511 L 192.000 170.000" style="stroke: red;" fill="none"></path><path d="M 92.000 230.000 L 53.000 250.000 L 52.000 910.000 L 52.000 949.000 L 52.000 970.000 L 52.000 1009.000 L 52.000 1030.000 L 52.000 1069.000 L 113.000 1090.000 L 105.013 1083.982 M 103.002 1089.826 L 113.000 1090.000" style="stroke: black;" fill="none"></path><path d="M 92.000 290.000 L 74.000 610.000 L 74.000 649.000 L 74.000 670.000 L 74.000 709.000 L 74.000 730.000 L 74.000 769.000 L 74.000 790.000 L 74.000 829.000 L 74.000 850.000 L 74.000 889.000 L 101.000 910.000 L 113.000 1030.000 L 115.128 1020.229 M 108.979 1020.844 L 113.000 1030.000" style="stroke: black;" fill="none"></path><path d="M 175.000 950.000 L 157.000 970.000 L 141.000 1069.000 L 113.000 1090.000 L 122.463 1086.766 M 118.754 1081.822 L 113.000 1090.000" style="stroke: black;" fill="none"></path><path d="M 174.000 530.000 L 175.000 910.000 L 178.065 900.481 M 171.885 900.498 L 175.000 910.000" style="stroke: black;" fill="none"></path><path d="M 215.000 670.000 L 183.000 550.000 L 174.000 530.000 L 175.085 539.941 M 180.721 537.405 L 174.000 530.000" style="stroke: red;" fill="none"></path><path d="M 124.000 590.000 L 95.000 610.000 L 80.000 949.000 L 73.000 970.000 L 73.000 1009.000 L 74.000 1069.000 L 113.000 1090.000 L 106.091 1082.770 M 103.161 1088.212 L 113.000 1090.000" style="stroke: black;" fill="none"></path><path d="M 134.000 650.000 L 122.000 1009.000 L 113.000 1030.000 L 119.587 1022.476 M 113.906 1020.041 L 113.000 1030.000" style="stroke: black;" fill="none"></path><path d="M 215.000 470.000 L 236.000 649.000 L 264.000 670.000 L 276.000 790.000 L 278.128 780.229 M 271.979 780.844 L 276.000 790.000" style="stroke: black;" fill="none"></path><path d="M 277.000 1030.000 L 276.000 890.000 L 272.978 899.532 M 279.158 899.488 L 276.000 890.000" style="stroke: red;" fill="none"></path><path d="M 236.000 950.000 L 224.000 1009.000 L 164.000 1069.000 L 113.000 1090.000 L 122.971 1089.236 M 120.618 1083.521 L 113.000 1090.000" style="stroke: black;" fill="none"></path></svg>