<svg version="1.1" xmlns="http://www.w3.org/2000/svg" viewBox="0 0 1418.5184917518734 462" width="2837.036983503747" height="924">
  <!-- svg-source:excalidraw -->
  
  <defs>
    <style class="style-fonts">
      @font-face {
        font-family: "Virgil";
        src: url("https://excalidraw.com/Virgil.woff2");
      }
      @font-face {
        font-family: "Cascadia";
        src: url("https://excalidraw.com/Cascadia.woff2");
      }
    </style>
    
  </defs>
  <g stroke-linecap="round" transform="translate(10 14.91810306568459) rotate(0 333 218.5)"><path d="M34.6 1.27 L630.77 2.66 L652.71 5.66 L665.11 13.61 L666.76 33.46 L665.07 404.32 L658.53 425.93 L657.29 436.19 L637.56 439.62 L32.19 435.89 L10.13 433.3 L-1.56 422.81 L-1.72 407 L2.43 31.6 L4.28 16.49 L5.83 9.67 L18.19 2.8 L28.06 3.66" stroke="none" stroke-width="0" fill="#228be6"></path><path d="M32 0 M32 0 C217.33 3.13, 399.96 4.24, 634 0 M32 0 C232.16 3.5, 432.86 2.31, 634 0 M634 0 C657.95 2.73, 667.39 12.28, 666 32 M634 0 C652.29 4.48, 663.61 12.88, 666 32 M666 32 C664.36 142.88, 665.69 256.38, 666 405 M666 32 C664.85 167.66, 664.46 303.38, 666 405 M666 405 C662.54 423.14, 654.27 436.94, 634 437 M666 405 C669.61 428, 652.76 438.96, 634 437 M634 437 C414.59 438.02, 195.18 436.51, 32 437 M634 437 C484.64 435.43, 336.71 435.66, 32 437 M32 437 C8.5 438.59, -3.68 423.03, 0 405 M32 437 C7.18 436.03, 2.42 427.36, 0 405 M0 405 C-0.42 305.53, -0.37 204.96, 0 32 M0 405 C0.18 266.55, 0.12 130.06, 0 32 M0 32 C3.63 13.01, 13.93 -0.19, 32 0 M0 32 C-1.55 8.51, 8.73 -4.29, 32 0" stroke="#1e1e1e" stroke-width="4" fill="none"></path></g><g transform="translate(216.4375 19.91810306568459) rotate(0 126.5625 21.600000000000023)"><text x="126.5625" y="0" font-family="Cascadia, Segoe UI Emoji" font-size="36px" fill="#1e1e1e" text-anchor="middle" style="white-space: pre;" direction="ltr" dominant-baseline="text-before-edge">AOT snapshot</text></g><g stroke-linecap="round" transform="translate(353.1913433143734 112.9150390625) rotate(0 149.5 148.5)"><path d="M29.24 2.79 L263.96 3.28 L278.36 1.15 L290.34 8.22 L300.11 17.02 L296.1 35.92 L297.87 261.25 L300.91 282.44 L293.6 289.11 L282.02 292.26 L264.84 296.32 L29.22 294.33 L19.66 293.02 L8.89 290 L-1.28 282.8 L-0.06 268.08 L-0.29 24.19 L5.88 7.82 L16.92 -1.86 L33.76 0.9" stroke="none" stroke-width="0" fill="#e64980"></path><path d="M32 0 M32 0 C122.41 -1.42, 211.91 -1.03, 267 0 M32 0 C114.53 1.42, 196.25 1.69, 267 0 M267 0 C286.74 0.5, 302.11 12.37, 299 32 M267 0 C286.56 -1.39, 302.26 8.09, 299 32 M299 32 C299.98 110.95, 294.12 190.83, 299 265 M299 32 C294.32 112.35, 296.95 195.92, 299 265 M299 265 C300.97 285.61, 290.41 300.76, 267 297 M299 265 C302.34 285.85, 287.96 299.98, 267 297 M267 297 C197.09 298.07, 125.44 292.76, 32 297 M267 297 C203.69 295.68, 143.06 296.54, 32 297 M32 297 C8.8 296.08, -1.92 283.47, 0 265 M32 297 C14.46 295.98, 4.25 289.6, 0 265 M0 265 C-2.89 176.69, -6.23 88.53, 0 32 M0 265 C0.18 218.98, -1.11 170.08, 0 32 M0 32 C-0.39 14.17, 12.53 -3.34, 32 0 M0 32 C1.13 11.57, 14.63 4.43, 32 0" stroke="#ffffff" stroke-width="4" fill="none"></path></g><g transform="translate(428.8632183143734 117.9150390625) rotate(0 73.828125 43.200000000000045)"><text x="73.828125" y="0" font-family="Cascadia, Segoe UI Emoji" font-size="36px" fill="#ffffff" text-anchor="middle" style="white-space: pre;" direction="ltr" dominant-baseline="text-before-edge">machine</text><text x="73.828125" y="43.199999999999996" font-family="Cascadia, Segoe UI Emoji" font-size="36px" fill="#ffffff" text-anchor="middle" style="white-space: pre;" direction="ltr" dominant-baseline="text-before-edge">code</text></g><g stroke-linecap="round" transform="translate(46.8045616287468 112.60631099681541) rotate(0 144 148.5)"><path d="M35.13 -3.91 L258.88 -1.79 L266.02 -1.74 L281.54 10.27 L288.13 14.57 L289.11 29 L291.26 268.95 L285.7 276.55 L276.78 291.76 L270.94 293.51 L255.6 295.81 L34.04 298.9 L14.24 294.35 L5.78 286.19 L0.73 280.05 L0.49 262.27 L3.2 26.53 L4.07 10.48 L17.32 -0.14 L35.98 -3.4" stroke="none" stroke-width="0" fill="#12b886"></path><path d="M32 0 M32 0 C116.87 -0.3, 203.25 -2.54, 256 0 M32 0 C122.32 -2.62, 207.97 -3.8, 256 0 M256 0 C280.13 -2.06, 284.86 7.29, 288 32 M256 0 C280.71 1.74, 292.2 6.82, 288 32 M288 32 C285.43 83.73, 288.02 137.35, 288 265 M288 32 C289.15 101.05, 290.86 166.83, 288 265 M288 265 C287.98 284.61, 276.88 300.78, 256 297 M288 265 C283.93 289.93, 275.39 297.12, 256 297 M256 297 C204.49 291.28, 151.66 292.85, 32 297 M256 297 C188.54 297.2, 120.52 297.27, 32 297 M32 297 C10.79 295.41, -3.77 284.6, 0 265 M32 297 C9.34 293.94, -1.87 290.13, 0 265 M0 265 C-5.77 195.08, -1.64 126.55, 0 32 M0 265 C2.96 205.26, 5.23 144.83, 0 32 M0 32 C-0.02 12.51, 7.46 -2.34, 32 0 M0 32 C-2.65 7.45, 12.74 0.15, 32 0" stroke="#ffffff" stroke-width="4" fill="none"></path></g><g transform="translate(148.6170616287468 117.60631099681541) rotate(0 42.1875 21.600000000000023)"><text x="42.1875" y="0" font-family="Cascadia, Segoe UI Emoji" font-size="36px" fill="#ffffff" text-anchor="middle" style="white-space: pre;" direction="ltr" dominant-baseline="text-before-edge">data</text></g><g stroke-linecap="round" transform="translate(227.0243511268734 201.56396484375) rotate(0 20.18066406249997 19.76806640625)"><path d="M0.48 5.72 C0.48 5.72, 0.48 5.72, 0.48 5.72 M0.48 5.72 C0.48 5.72, 0.48 5.72, 0.48 5.72 M0.61 17.76 C5.99 11.34, 11.43 10.1, 13.08 3.42 M0.61 17.76 C5.19 12.78, 6.12 11.87, 13.08 3.42 M0.75 29.8 C8.18 25.4, 15.05 12.75, 23.71 3.38 M0.75 29.8 C9.18 24.05, 13.36 16.13, 23.71 3.38 M4.16 38.07 C11.57 27.64, 26.45 11.68, 34.34 3.35 M4.16 38.07 C13.45 27.17, 22.15 13.63, 34.34 3.35 M12.17 41.05 C20.41 30.64, 29.77 24.99, 42.34 6.33 M12.17 41.05 C23.37 31.49, 31.74 19.98, 42.34 6.33 M22.8 41.02 C32.05 33.7, 41.85 24.18, 45.76 14.6 M22.8 41.02 C30.03 32.04, 39.11 22.68, 45.76 14.6 M32.77 41.74 C33.34 35.52, 41.61 33.95, 41.95 31.17 M32.77 41.74 C35.29 38.65, 39.14 33.13, 41.95 31.17 M2.33 36.95 C2.33 36.95, 2.33 36.95, 2.33 36.95 M2.33 36.95 C2.33 36.95, 2.33 36.95, 2.33 36.95 M12.87 35.5 C10.27 30.09, 6.7 25.95, 2.3 26.32 M12.87 35.5 C11.15 31.84, 7.26 30.45, 2.3 26.32 M25.66 36.02 C19.46 29.11, 15.9 26.46, 3.02 16.34 M25.66 36.02 C19.39 30.09, 12.35 25.69, 3.02 16.34 M38.46 36.55 C24.84 26.42, 12.5 17.25, 1.48 4.4 M38.46 36.55 C28.6 26.49, 16.95 18.05, 1.48 4.4 M41.44 28.54 C31.54 14.14, 14.06 2.52, 7.48 -0.98 M41.44 28.54 C32.01 19.73, 18.45 8.05, 7.48 -0.98 M41.41 17.91 C34.86 11.12, 31.29 9.65, 14.24 -5.71 M41.41 17.91 C28.85 6.44, 21.3 0.39, 14.24 -5.71 M42.13 7.94 C37.54 7.12, 33.02 4.31, 31.56 -1.25 M42.13 7.94 C40.01 5.99, 38.11 3.14, 31.56 -1.25" stroke="#ffffff" stroke-width="1" fill="none"></path><path d="M9.88 0 M9.88 0 C17.74 -3.11, 21.74 -0.14, 30.48 0 M9.88 0 C18.47 0.01, 23.12 -0.88, 30.48 0 M30.48 0 C40.67 -0.8, 37.62 5.84, 40.36 9.88 M30.48 0 C33.29 -2.01, 40.02 0.13, 40.36 9.88 M40.36 9.88 C39.65 18.3, 38.93 22.61, 40.36 29.65 M40.36 9.88 C41.31 13.97, 39.41 20.72, 40.36 29.65 M40.36 29.65 C38.06 40.21, 33.35 39.56, 30.48 39.54 M40.36 29.65 C36.19 40.49, 37.83 41.45, 30.48 39.54 M30.48 39.54 C27.64 37.33, 14.48 37.97, 9.88 39.54 M30.48 39.54 C24.6 38.75, 16.07 39.89, 9.88 39.54 M9.88 39.54 C6.34 40.2, 3.73 33.07, 0 29.65 M9.88 39.54 C0.35 36.8, -2.63 33.47, 0 29.65 M0 29.65 C3.72 22.68, -3.21 17.19, 0 9.88 M0 29.65 C1.68 21.59, -1.68 16.27, 0 9.88 M0 9.88 C-0.2 2.71, 4.14 -2.82, 9.88 0 M0 9.88 C3.34 2.95, 3.51 -2.86, 9.88 0" stroke="#ffffff" stroke-width="2" fill="none"></path></g><g stroke-linecap="round" transform="translate(63.4696636268734 260.93896484375) rotate(0 20.18066406249997 19.76806640625)"><path d="M0.48 5.72 C0.48 5.72, 0.48 5.72, 0.48 5.72 M0.48 5.72 C0.48 5.72, 0.48 5.72, 0.48 5.72 M0.61 17.76 C8.34 15.05, 9.01 7.19, 13.08 3.42 M0.61 17.76 C3.05 14.18, 6.95 12.79, 13.08 3.42 M0.75 29.8 C6.48 16.06, 21.9 12.17, 23.71 3.38 M0.75 29.8 C7.52 23.31, 14.14 14.89, 23.71 3.38 M4.16 38.07 C10.76 30.91, 17.96 20.98, 34.34 3.35 M4.16 38.07 C15.67 23.85, 24.76 12.96, 34.34 3.35 M12.17 41.05 C24.68 28.58, 29.97 14.16, 42.34 6.33 M12.17 41.05 C25.35 26.27, 34.98 14.22, 42.34 6.33 M22.8 41.02 C25.1 34.8, 36.35 27.97, 45.76 14.6 M22.8 41.02 C29.37 32.98, 36.77 22.1, 45.76 14.6 M32.77 41.74 C32.77 38.71, 35.32 38.42, 41.95 31.17 M32.77 41.74 C35.48 39.19, 39.81 34.15, 41.95 31.17 M2.33 36.95 C2.33 36.95, 2.33 36.95, 2.33 36.95 M2.33 36.95 C2.33 36.95, 2.33 36.95, 2.33 36.95 M12.87 35.5 C8.09 32.27, 9.19 33.5, 2.3 26.32 M12.87 35.5 C10.87 33.67, 9.32 32.33, 2.3 26.32 M25.66 36.02 C20.94 31.09, 17.16 24.65, 3.02 16.34 M25.66 36.02 C16.01 28.28, 7.31 23.02, 3.02 16.34 M38.46 36.55 C21.79 27.34, 14.47 10.5, 1.48 4.4 M38.46 36.55 C26.18 23.92, 11.14 12.33, 1.48 4.4 M41.44 28.54 C32.75 22.73, 21.51 9.04, 7.48 -0.98 M41.44 28.54 C30.46 21.13, 20.29 9.61, 7.48 -0.98 M41.41 17.91 C33.65 9.59, 27.96 8.41, 14.24 -5.71 M41.41 17.91 C32 12.04, 24 5.53, 14.24 -5.71 M42.13 7.94 C37.96 6.84, 35.79 4.61, 31.56 -1.25 M42.13 7.94 C38.72 4.72, 33.14 1.1, 31.56 -1.25" stroke="#ffffff" stroke-width="1" fill="none"></path><path d="M9.88 0 M9.88 0 C16.27 -2.63, 22.33 -0.93, 30.48 0 M9.88 0 C15.13 1.8, 25.86 -1.46, 30.48 0 M30.48 0 C34.09 0.13, 37.3 2.55, 40.36 9.88 M30.48 0 C33.42 0.53, 43.03 4, 40.36 9.88 M40.36 9.88 C38.51 15.73, 37.92 23.37, 40.36 29.65 M40.36 9.88 C42.04 13.11, 41.26 17.17, 40.36 29.65 M40.36 29.65 C39.85 34.01, 35.29 38.92, 30.48 39.54 M40.36 29.65 C43.35 38.73, 34.01 35.13, 30.48 39.54 M30.48 39.54 C23.57 39.72, 14.7 36.5, 9.88 39.54 M30.48 39.54 C26.21 40.32, 19.95 38.72, 9.88 39.54 M9.88 39.54 C5.07 41.88, 2.7 38.65, 0 29.65 M9.88 39.54 C0.77 36.42, 3.5 36.37, 0 29.65 M0 29.65 C3.68 27.67, 2.89 18.02, 0 9.88 M0 29.65 C-2.17 26.6, 1.21 22.9, 0 9.88 M0 9.88 C3.5 3.22, -0.25 -2.23, 9.88 0 M0 9.88 C-4.2 2.43, 6.21 2.83, 9.88 0" stroke="#ffffff" stroke-width="2" fill="none"></path></g><g stroke-linecap="round" transform="translate(207.5468120643734 302.34521484375) rotate(0 20.18066406249997 19.76806640625)"><path d="M0.48 5.72 C0.48 5.72, 0.48 5.72, 0.48 5.72 M0.48 5.72 C0.48 5.72, 0.48 5.72, 0.48 5.72 M0.61 17.76 C4.9 12.57, 7.56 8.8, 13.08 3.42 M0.61 17.76 C2.38 16.59, 4.42 11.6, 13.08 3.42 M0.75 29.8 C6.73 25.02, 9.56 21.04, 23.71 3.38 M0.75 29.8 C9.22 20.61, 19.47 8.75, 23.71 3.38 M4.16 38.07 C16.23 28.63, 26.87 16.77, 34.34 3.35 M4.16 38.07 C10.12 29.55, 16.26 22.46, 34.34 3.35 M12.17 41.05 C18.62 25.48, 33.3 18.85, 42.34 6.33 M12.17 41.05 C21.59 27.5, 34.68 14.53, 42.34 6.33 M22.8 41.02 C30.24 32.39, 35.44 22.85, 45.76 14.6 M22.8 41.02 C28.61 33.09, 30.75 30.12, 45.76 14.6 M32.77 41.74 C33.71 36.16, 39.52 33.68, 41.95 31.17 M32.77 41.74 C34.91 40.27, 37.14 37.75, 41.95 31.17 M2.33 36.95 C2.33 36.95, 2.33 36.95, 2.33 36.95 M2.33 36.95 C2.33 36.95, 2.33 36.95, 2.33 36.95 M12.87 35.5 C9.45 32.65, 4.27 31.34, 2.3 26.32 M12.87 35.5 C11.62 32.39, 7.35 32.07, 2.3 26.32 M25.66 36.02 C14.77 33.62, 12.96 24.8, 3.02 16.34 M25.66 36.02 C21.73 31.86, 16.83 26.08, 3.02 16.34 M38.46 36.55 C26.91 26.97, 7.48 17.24, 1.48 4.4 M38.46 36.55 C24.89 22.26, 10.41 10, 1.48 4.4 M41.44 28.54 C30.39 16.08, 21.86 8.71, 7.48 -0.98 M41.44 28.54 C30.25 20.19, 22.87 12.83, 7.48 -0.98 M41.41 17.91 C34.43 9.71, 26.91 5.89, 14.24 -5.71 M41.41 17.91 C29.32 9.14, 19.9 0.37, 14.24 -5.71 M42.13 7.94 C36.95 5.09, 36.41 2.25, 31.56 -1.25 M42.13 7.94 C37.35 5.13, 34.55 1.84, 31.56 -1.25" stroke="#ffffff" stroke-width="1" fill="none"></path><path d="M9.88 0 M9.88 0 C20.35 0.39, 20.72 -0.39, 30.48 0 M9.88 0 C17.98 -2.09, 21.57 1.21, 30.48 0 M30.48 0 C40.9 -3.82, 42.9 6.3, 40.36 9.88 M30.48 0 C41.4 4.03, 40.28 -0.79, 40.36 9.88 M40.36 9.88 C42.51 17.14, 36.35 17.99, 40.36 29.65 M40.36 9.88 C41.44 15.49, 41.14 20.38, 40.36 29.65 M40.36 29.65 C38.27 40.11, 35.73 37.83, 30.48 39.54 M40.36 29.65 C40.21 35.02, 36.94 43.35, 30.48 39.54 M30.48 39.54 C28.78 40.52, 23.37 39.87, 9.88 39.54 M30.48 39.54 C21.28 40.69, 16.09 39.9, 9.88 39.54 M9.88 39.54 C5.87 40.36, 1.96 37.59, 0 29.65 M9.88 39.54 C1.61 38.83, 2.86 35.46, 0 29.65 M0 29.65 C-2.32 22.55, -4.11 18.12, 0 9.88 M0 29.65 C-0.87 21.23, -0.37 16.87, 0 9.88 M0 9.88 C-3.55 5.49, 4.43 -3.59, 9.88 0 M0 9.88 C3.68 7.37, 6.21 -1.18, 9.88 0" stroke="#ffffff" stroke-width="2" fill="none"></path></g><g stroke-linecap="round" transform="translate(132.8837261268734 267.63330078125) rotate(0 20.18066406249997 19.76806640625)"><path d="M0.48 5.72 C0.48 5.72, 0.48 5.72, 0.48 5.72 M0.48 5.72 C0.48 5.72, 0.48 5.72, 0.48 5.72 M0.61 17.76 C1.43 11.34, 5.46 12.9, 13.08 3.42 M0.61 17.76 C3.8 12.77, 11.24 8.38, 13.08 3.42 M0.75 29.8 C8.82 19.59, 18.64 10.28, 23.71 3.38 M0.75 29.8 C5.73 22.53, 10.47 16.21, 23.71 3.38 M4.16 38.07 C11.79 20.59, 29.28 12.44, 34.34 3.35 M4.16 38.07 C8.6 31.73, 15.56 22.66, 34.34 3.35 M12.17 41.05 C22.51 32.69, 29.77 21.77, 42.34 6.33 M12.17 41.05 C18.55 32.71, 25.71 25.18, 42.34 6.33 M22.8 41.02 C27.87 34.92, 29.98 30.9, 45.76 14.6 M22.8 41.02 C31.21 30, 40.69 20.37, 45.76 14.6 M32.77 41.74 C34.36 36.63, 41.45 33.51, 41.95 31.17 M32.77 41.74 C37.16 38.33, 39.58 32.74, 41.95 31.17 M2.33 36.95 C2.33 36.95, 2.33 36.95, 2.33 36.95 M2.33 36.95 C2.33 36.95, 2.33 36.95, 2.33 36.95 M12.87 35.5 C8.36 32.81, 5.78 31.48, 2.3 26.32 M12.87 35.5 C7.88 32.88, 4.74 28.91, 2.3 26.32 M25.66 36.02 C20.28 33.78, 17.65 23.22, 3.02 16.34 M25.66 36.02 C17.14 28.31, 10.17 23.73, 3.02 16.34 M38.46 36.55 C26.21 21.6, 12.8 12.55, 1.48 4.4 M38.46 36.55 C27.64 26.45, 16.24 18.28, 1.48 4.4 M41.44 28.54 C31.11 20.55, 20.45 10.54, 7.48 -0.98 M41.44 28.54 C33.57 19.82, 24.86 15.06, 7.48 -0.98 M41.41 17.91 C26.77 5.77, 22.74 3.65, 14.24 -5.71 M41.41 17.91 C37.44 15.24, 29.96 6.89, 14.24 -5.71 M42.13 7.94 C41.49 7.38, 34.55 2.32, 31.56 -1.25 M42.13 7.94 C40.69 6.1, 37.81 3.72, 31.56 -1.25" stroke="#ffffff" stroke-width="1" fill="none"></path><path d="M9.88 0 M9.88 0 C13.28 0.01, 19.03 0.03, 30.48 0 M9.88 0 C17.02 1.37, 26.23 0.99, 30.48 0 M30.48 0 C37.55 3.41, 43.85 3.11, 40.36 9.88 M30.48 0 C34.15 2.69, 43.76 4.17, 40.36 9.88 M40.36 9.88 C41.77 15.64, 39.83 26.76, 40.36 29.65 M40.36 9.88 C41.17 14.41, 38.94 19.11, 40.36 29.65 M40.36 29.65 C38.29 37.81, 39.04 35.91, 30.48 39.54 M40.36 29.65 C38.79 32.23, 36.65 40.98, 30.48 39.54 M30.48 39.54 C22.53 42.85, 25.31 42.19, 9.88 39.54 M30.48 39.54 C23.58 38.61, 17.43 39.9, 9.88 39.54 M9.88 39.54 C0.54 35.67, -3.53 32.65, 0 29.65 M9.88 39.54 C6.2 42.09, 0.24 34.46, 0 29.65 M0 29.65 C-1.48 20.53, 3.97 15.14, 0 9.88 M0 29.65 C-0.29 22.62, 0.32 17.57, 0 9.88 M0 9.88 C2.56 -0.57, 3.77 -1.25, 9.88 0 M0 9.88 C-3.89 0.41, 1.84 -1.19, 9.88 0" stroke="#ffffff" stroke-width="2" fill="none"></path></g><g stroke-linecap="round" transform="translate(138.1229839393734 180.82666015625) rotate(0 20.18066406249997 19.76806640625)"><path d="M0.48 5.72 C0.48 5.72, 0.48 5.72, 0.48 5.72 M0.48 5.72 C0.48 5.72, 0.48 5.72, 0.48 5.72 M0.61 17.76 C7.02 12.57, 10.24 10.7, 13.08 3.42 M0.61 17.76 C6.74 11.33, 8.14 7.61, 13.08 3.42 M0.75 29.8 C6.44 26.58, 11.71 18.24, 23.71 3.38 M0.75 29.8 C5.44 23.2, 11.29 17.23, 23.71 3.38 M4.16 38.07 C10.2 28.58, 18.45 15.57, 34.34 3.35 M4.16 38.07 C13.14 30.77, 17.88 19.29, 34.34 3.35 M12.17 41.05 C21.52 30.43, 28.42 16.43, 42.34 6.33 M12.17 41.05 C22.95 31.57, 31.84 19.62, 42.34 6.33 M22.8 41.02 C32.81 29.41, 35.6 25.56, 45.76 14.6 M22.8 41.02 C30.75 34.92, 38.22 26.53, 45.76 14.6 M32.77 41.74 C37.51 36.76, 38.5 39.36, 41.95 31.17 M32.77 41.74 C34.96 36.79, 38.55 33.15, 41.95 31.17 M2.33 36.95 C2.33 36.95, 2.33 36.95, 2.33 36.95 M2.33 36.95 C2.33 36.95, 2.33 36.95, 2.33 36.95 M12.87 35.5 C10.07 35.41, 5.36 31.45, 2.3 26.32 M12.87 35.5 C10.73 33.32, 8.38 31.97, 2.3 26.32 M25.66 36.02 C22.18 31.24, 15.12 25.48, 3.02 16.34 M25.66 36.02 C17.32 30.24, 9.39 20.92, 3.02 16.34 M38.46 36.55 C22.8 20.95, 10.18 15.22, 1.48 4.4 M38.46 36.55 C24.38 24.88, 13.83 12.06, 1.48 4.4 M41.44 28.54 C32.42 20.99, 19.7 5.94, 7.48 -0.98 M41.44 28.54 C31.09 18.81, 23.68 11.62, 7.48 -0.98 M41.41 17.91 C38.82 14.84, 30.98 6.26, 14.24 -5.71 M41.41 17.91 C32.81 9.5, 27.63 2.8, 14.24 -5.71 M42.13 7.94 C38.36 4.62, 35.6 3.91, 31.56 -1.25 M42.13 7.94 C38.02 3.43, 33.73 0.83, 31.56 -1.25" stroke="#ffffff" stroke-width="1" fill="none"></path><path d="M9.88 0 M9.88 0 C19.23 3.27, 17.59 -2.84, 30.48 0 M9.88 0 C15.41 -0.2, 20.13 -1.6, 30.48 0 M30.48 0 C38.92 3.31, 38.72 6.94, 40.36 9.88 M30.48 0 C33.81 3.93, 38.55 2.39, 40.36 9.88 M40.36 9.88 C37.09 13.24, 42.74 18.57, 40.36 29.65 M40.36 9.88 C40.86 14.95, 41.12 22.02, 40.36 29.65 M40.36 29.65 C41.31 34.06, 34.81 38.95, 30.48 39.54 M40.36 29.65 C43.43 36.36, 34.18 43.18, 30.48 39.54 M30.48 39.54 C27.58 39.88, 19.61 42.95, 9.88 39.54 M30.48 39.54 C23.83 38.12, 22.61 38.41, 9.88 39.54 M9.88 39.54 C1.22 36.5, 1.76 36.87, 0 29.65 M9.88 39.54 C0.93 41.97, 2.25 37.72, 0 29.65 M0 29.65 C-3.55 27.48, -1.39 23.24, 0 9.88 M0 29.65 C0.8 22.55, -0.26 18.32, 0 9.88 M0 9.88 C-1.82 3.05, 4.08 3.17, 9.88 0 M0 9.88 C-0.36 1.95, -1.04 1.18, 9.88 0" stroke="#ffffff" stroke-width="2" fill="none"></path></g><g stroke-linecap="round" transform="translate(277.4833355018734 317.08154296875) rotate(0 20.18066406249997 19.76806640625)"><path d="M0.48 5.72 C0.48 5.72, 0.48 5.72, 0.48 5.72 M0.48 5.72 C0.48 5.72, 0.48 5.72, 0.48 5.72 M0.61 17.76 C4.49 13.61, 12.41 9.6, 13.08 3.42 M0.61 17.76 C1.51 13.73, 5.05 11.51, 13.08 3.42 M0.75 29.8 C11.84 16.83, 13.52 8.08, 23.71 3.38 M0.75 29.8 C6.34 24.13, 10.83 16.9, 23.71 3.38 M4.16 38.07 C13.17 27.65, 25.97 10.16, 34.34 3.35 M4.16 38.07 C11.35 27.36, 22.21 18.2, 34.34 3.35 M12.17 41.05 C24.54 25.66, 35.31 14.61, 42.34 6.33 M12.17 41.05 C22.02 31.49, 32.14 17.66, 42.34 6.33 M22.8 41.02 C32.46 32.78, 40.94 19.26, 45.76 14.6 M22.8 41.02 C30.83 29.08, 39.64 22.38, 45.76 14.6 M32.77 41.74 C36.46 39.61, 36.14 37.95, 41.95 31.17 M32.77 41.74 C35.15 38.83, 37.78 35.48, 41.95 31.17 M2.33 36.95 C2.33 36.95, 2.33 36.95, 2.33 36.95 M2.33 36.95 C2.33 36.95, 2.33 36.95, 2.33 36.95 M12.87 35.5 C8.24 34.15, 7.4 32.34, 2.3 26.32 M12.87 35.5 C11.5 31.82, 8.74 30.79, 2.3 26.32 M25.66 36.02 C19.59 27.23, 9.68 25.64, 3.02 16.34 M25.66 36.02 C21.98 31.85, 17.12 25, 3.02 16.34 M38.46 36.55 C29.63 28.37, 26.68 25.39, 1.48 4.4 M38.46 36.55 C27.2 27.48, 18.92 17.88, 1.48 4.4 M41.44 28.54 C34.82 19.6, 20.14 7.08, 7.48 -0.98 M41.44 28.54 C32.69 22.69, 27.72 16.28, 7.48 -0.98 M41.41 17.91 C35.64 11.2, 33.16 9.91, 14.24 -5.71 M41.41 17.91 C34.41 8.67, 22.09 1.19, 14.24 -5.71 M42.13 7.94 C38.29 4.15, 38.48 5.64, 31.56 -1.25 M42.13 7.94 C39.37 6.58, 36.46 3.76, 31.56 -1.25" stroke="#ffffff" stroke-width="1" fill="none"></path><path d="M9.88 0 M9.88 0 C17.82 1.6, 19.89 -4.03, 30.48 0 M9.88 0 C16.07 0.84, 17.55 1.19, 30.48 0 M30.48 0 C38.78 3.75, 43.72 5.18, 40.36 9.88 M30.48 0 C39.76 4.07, 40.01 5.58, 40.36 9.88 M40.36 9.88 C43.45 16.1, 41.21 17.62, 40.36 29.65 M40.36 9.88 C39.61 14.54, 42.28 19.46, 40.36 29.65 M40.36 29.65 C36.88 35.24, 33.73 38.88, 30.48 39.54 M40.36 29.65 C37.23 37.29, 35.46 37.78, 30.48 39.54 M30.48 39.54 C25.48 41.79, 24.18 39.88, 9.88 39.54 M30.48 39.54 C23.59 38.71, 19.65 39.28, 9.88 39.54 M9.88 39.54 C2.97 37.48, 0.96 35.28, 0 29.65 M9.88 39.54 C6.08 39.62, 1.58 33.27, 0 29.65 M0 29.65 C-0.77 27.19, -3.44 21.12, 0 9.88 M0 29.65 C-0.06 23.13, 0.69 18.08, 0 9.88 M0 9.88 C-3.17 -0.63, 6.54 2.32, 9.88 0 M0 9.88 C3.16 0.51, 2.82 -0.04, 9.88 0" stroke="#ffffff" stroke-width="2" fill="none"></path></g><g stroke-linecap="round"><g transform="translate(90.25095031163721 260.22216796875) rotate(0 22.958774123915845 -20.398038592107923)"><path d="M1.87 0.07 C9.48 -6.67, 37.11 -33.46, 44.05 -40.87" stroke="#ffffff" stroke-width="2.5" fill="none" stroke-dasharray="8 10"></path></g><g transform="translate(90.25095031163721 260.22216796875) rotate(0 22.958774123915845 -20.398038592107923)"><path d="M31.61 -16.12 C37.81 -23.75, 35.82 -26.54, 45.61 -40.58" stroke="#ffffff" stroke-width="2.5" fill="none"></path></g><g transform="translate(90.25095031163721 260.22216796875) rotate(0 22.958774123915845 -20.398038592107923)"><path d="M17.02 -30.56 C26.74 -34.87, 28.29 -34.14, 45.61 -40.58" stroke="#ffffff" stroke-width="2.5" fill="none"></path></g></g><mask></mask><g stroke-linecap="round"><g transform="translate(159.4062741891263 223.119140625) rotate(0 2.3937945791688264 21.286392969265535)"><path d="M0.36 2 C0.76 8.75, 4.45 34.47, 4.43 40.57" stroke="#ffffff" stroke-width="2.5" fill="none" stroke-dasharray="8 10"></path></g><g transform="translate(159.4062741891263 223.119140625) rotate(0 2.3937945791688264 21.286392969265535)"><path d="M-1.02 25.52 C0.53 26.28, 0.81 37.55, 1.45 37.72" stroke="#ffffff" stroke-width="2.5" fill="none"></path></g><g transform="translate(159.4062741891263 223.119140625) rotate(0 2.3937945791688264 21.286392969265535)"><path d="M12.52 24.41 C9.02 25.62, 4.25 37.31, 1.45 37.72" stroke="#ffffff" stroke-width="2.5" fill="none"></path></g></g><mask></mask><g stroke-linecap="round"><g transform="translate(174.7245464393734 279.3154296875) rotate(0 26.56159001551569 -33.07840010486541)"><path d="M0.47 -0.08 C9.14 -10.87, 44.59 -54.72, 52.66 -66.07" stroke="#ffffff" stroke-width="2.5" fill="none" stroke-dasharray="8 10"></path></g><g transform="translate(174.7245464393734 279.3154296875) rotate(0 26.56159001551569 -33.07840010486541)"><path d="M43.54 -34.55 C46.59 -49.21, 46.48 -58.78, 49.78 -63.78" stroke="#ffffff" stroke-width="2.5" fill="none"></path></g><g transform="translate(174.7245464393734 279.3154296875) rotate(0 26.56159001551569 -33.07840010486541)"><path d="M27.25 -47.02 C35.42 -57.73, 40.55 -63.28, 49.78 -63.78" stroke="#ffffff" stroke-width="2.5" fill="none"></path></g></g><mask></mask><g stroke-linecap="round"><g transform="translate(81.2186870643734 293.9736328125) rotate(0 56.16671062074602 26.261527344959404)"><path d="M-2.69 2.66 C4.05 10.35, 18.2 40.52, 37.81 47.4 C57.43 54.28, 101.73 44.58, 115.02 43.97" stroke="#ffffff" stroke-width="2.5" fill="none" stroke-dasharray="8 10"></path></g><g transform="translate(81.2186870643734 293.9736328125) rotate(0 56.16671062074602 26.261527344959404)"><path d="M92.1 54.8 C91.32 52.3, 103.01 53.14, 118.47 41.54" stroke="#ffffff" stroke-width="2.5" fill="none"></path></g><g transform="translate(81.2186870643734 293.9736328125) rotate(0 56.16671062074602 26.261527344959404)"><path d="M89.6 34.43 C89.52 36.18, 101.72 41.21, 118.47 41.54" stroke="#ffffff" stroke-width="2.5" fill="none"></path></g></g><mask></mask><g stroke-linecap="round"><g transform="translate(256.7362651893734 239.18359375) rotate(0 -12.178643720969575 29.02234351597724)"><path d="M-1.87 0.83 C-5.71 10.25, -19.34 47.65, -22.48 57.22" stroke="#ffffff" stroke-width="2.5" fill="none" stroke-dasharray="8 10"></path></g><g transform="translate(256.7362651893734 239.18359375) rotate(0 -12.178643720969575 29.02234351597724)"><path d="M-21.67 24.93 C-20.44 36.91, -18.9 47.83, -20.11 54.37" stroke="#ffffff" stroke-width="2.5" fill="none"></path></g><g transform="translate(256.7362651893734 239.18359375) rotate(0 -12.178643720969575 29.02234351597724)"><path d="M-2.49 31.64 C-7.41 41.22, -11.99 50, -20.11 54.37" stroke="#ffffff" stroke-width="2.5" fill="none"></path></g></g><mask></mask><g stroke-linecap="round"><g transform="translate(275.2274761268734 246.087890625) rotate(0 12.298546857014315 32.42349899969997)"><path d="M-2.28 -0.14 C2.43 10.82, 21.33 54.24, 26.88 64.99" stroke="#ffffff" stroke-width="2.5" fill="none" stroke-dasharray="8 10"></path></g><g transform="translate(275.2274761268734 246.087890625) rotate(0 12.298546857014315 32.42349899969997)"><path d="M5.41 40.19 C13.59 51.73, 17.97 53.49, 28.04 67.03" stroke="#ffffff" stroke-width="2.5" fill="none"></path></g><g transform="translate(275.2274761268734 246.087890625) rotate(0 12.298546857014315 32.42349899969997)"><path d="M23.98 31.47 C27.47 44.88, 27.22 48.82, 28.04 67.03" stroke="#ffffff" stroke-width="2.5" fill="none"></path></g></g><mask></mask><g stroke-linecap="round"><g transform="translate(272.5272808143734 353.2216796875) rotate(0 -95.55251883219512 -7.755561299263832)"><path d="M1.26 0.64 C-26.86 4.62, -138.42 31.94, -170.65 24.91 C-202.88 17.87, -188.64 -29.82, -192.13 -41.57" stroke="#ffffff" stroke-width="2.5" fill="none" stroke-dasharray="8 10"></path></g><g transform="translate(272.5272808143734 353.2216796875) rotate(0 -95.55251883219512 -7.755561299263832)"><path d="M-180.82 -15.4 C-181.09 -21.94, -184.1 -27.64, -195.24 -45.46" stroke="#ffffff" stroke-width="2.5" fill="none"></path></g><g transform="translate(272.5272808143734 353.2216796875) rotate(0 -95.55251883219512 -7.755561299263832)"><path d="M-201.34 -15.31 C-196.9 -22.05, -195.19 -27.77, -195.24 -45.46" stroke="#ffffff" stroke-width="2.5" fill="none"></path></g></g><mask></mask><g stroke-linecap="round" transform="translate(742.5184917518734 10) rotate(0 333 221)"><path d="M32.22 -2.89 L632.27 -2.69 L655.53 4.81 L658.47 9.65 L668.28 28.14 L665.97 409.66 L657.55 430.55 L651.08 439.03 L635.87 441.02 L29.55 439.05 L14.21 439.11 L-0.96 422.05 L0.95 413.93 L2.68 29.92 L2.45 14.66 L10.54 7.63 L18.46 4.05 L34.09 3.7" stroke="none" stroke-width="0" fill="#fab005"></path><path d="M32 0 M32 0 C161.67 4.64, 294.98 3.47, 634 0 M32 0 C224.93 -1.82, 418 -1.64, 634 0 M634 0 C652.78 0.72, 668.62 9.24, 666 32 M634 0 C655.57 3.58, 661.45 13.48, 666 32 M666 32 C667.23 163.56, 664.74 294.58, 666 410 M666 32 C668.27 155.8, 666.9 280.78, 666 410 M666 410 C665.58 427.38, 656.67 444.3, 634 442 M666 410 C668.97 430.65, 654.47 439.34, 634 442 M634 442 C492.06 439.64, 348.45 439.28, 32 442 M634 442 C441 446.52, 249.12 447.05, 32 442 M32 442 C7.99 438.41, 3.52 429.38, 0 410 M32 442 C10.81 442.32, 1.55 433.06, 0 410 M0 410 C1.23 297.16, 1.51 185.57, 0 32 M0 410 C-1.72 326.22, -2.27 242.65, 0 32 M0 32 C-1.54 12.88, 9.05 2.59, 32 0 M0 32 C-3.56 14.68, 13.64 1.44, 32 0" stroke="#1e1e1e" stroke-width="4" fill="none"></path></g><g transform="translate(948.9559917518734 15) rotate(0 126.5625 21.600000000000023)"><text x="126.5625" y="0" font-family="Cascadia, Segoe UI Emoji" font-size="36px" fill="#1e1e1e" text-anchor="middle" style="white-space: pre;" direction="ltr" dominant-baseline="text-before-edge">Dart Runtime</text></g><g transform="translate(370.4159526893734 243.25390625) rotate(0 135.9375 48)"><text x="0" y="0" font-family="Cascadia, Segoe UI Emoji" font-size="16px" fill="#ffffff" text-anchor="start" style="white-space: pre;" direction="ltr" dominant-baseline="text-before-edge">stp  x29, x30, [x15, #-0x10]!</text><text x="0" y="19.2" font-family="Cascadia, Segoe UI Emoji" font-size="16px" fill="#ffffff" text-anchor="start" style="white-space: pre;" direction="ltr" dominant-baseline="text-before-edge">mov  x29, x15</text><text x="0" y="38.4" font-family="Cascadia, Segoe UI Emoji" font-size="16px" fill="#ffffff" text-anchor="start" style="white-space: pre;" direction="ltr" dominant-baseline="text-before-edge">ldr  x2, [x29, #0x18]</text><text x="0" y="57.599999999999994" font-family="Cascadia, Segoe UI Emoji" font-size="16px" fill="#ffffff" text-anchor="start" style="white-space: pre;" direction="ltr" dominant-baseline="text-before-edge">ldur x3, [x2, #0xf]</text><text x="0" y="76.8" font-family="Cascadia, Segoe UI Emoji" font-size="16px" fill="#ffffff" text-anchor="start" style="white-space: pre;" direction="ltr" dominant-baseline="text-before-edge">asr  x0, x3, #1</text></g><g stroke-linecap="round" transform="translate(917.1330453646508 92.49053980262579) rotate(0 150.7415513186113 140.99479708593208)"><path d="M191.43 35.29 L283.38 119.8 L286.98 132.32 L290.89 141.36 L273.89 164.23 L178.86 260.81 L154.34 273.89 L144.43 274.34 L127.32 259.36 L25.76 161.96 L10.62 147.86 L6.41 134.27 L28.03 118.81 L142.47 9.67 L150.78 8.83 L159.56 10.99 L187.57 32.03" stroke="none" stroke-width="0" fill="#ffec99"></path><path d="M188.75 35.25 M188.75 35.25 C215 58.46, 236.66 78.43, 263.73 105.75 M188.75 35.25 C208.14 51.15, 225.9 71.65, 263.73 105.75 M263.73 105.75 C305.43 141.79, 301.49 140.71, 263.73 176.25 M263.73 105.75 C303.88 137.08, 302.26 144.79, 263.73 176.25 M263.73 176.25 C241.39 190.06, 227.87 208.75, 188.75 246.74 M263.73 176.25 C243.52 197.85, 220.45 218.33, 188.75 246.74 M188.75 246.74 C149.46 283.55, 148.87 283.61, 113.25 246.74 M188.75 246.74 C149.58 281.66, 146.93 279.19, 113.25 246.74 M113.25 246.74 C85.59 219.77, 57.21 192.85, 37.75 176.25 M113.25 246.74 C82.79 220.33, 51.17 190.81, 37.75 176.25 M37.75 176.25 C0.71 139.15, 3.06 137.52, 37.75 105.75 M37.75 176.25 C0.92 138.84, 4.54 139.46, 37.75 105.75 M37.75 105.75 C62.33 80.58, 82.14 64.78, 113.25 35.25 M37.75 105.75 C61.67 82.96, 86.92 61.49, 113.25 35.25 M113.25 35.25 C148.83 1.76, 147.68 2.83, 188.75 35.25 M113.25 35.25 C150.88 3.24, 148.78 -0.51, 188.75 35.25" stroke="#1e1e1e" stroke-width="4" fill="none"></path></g><g transform="translate(1010.5819460239566 216.68793834559187) rotate(0 57.421875 16.799999999999955)"><text x="57.421875" y="0" font-family="Cascadia, Segoe UI Emoji" font-size="28px" fill="#1e1e1e" text-anchor="middle" style="white-space: pre;" direction="ltr" dominant-baseline="text-before-edge">Isolate</text></g><g stroke-linecap="round"><g transform="translate(690.9483765031845 230.06785159191395) rotate(0 112.22768165121846 -1.1563183263399424)"><path d="M2.11 -2.14 C39.04 -1.82, 185.47 -0.59, 222.35 -0.18" stroke="#1e1e1e" stroke-width="4.5" fill="none" stroke-dasharray="8 12"></path></g><g transform="translate(690.9483765031845 230.06785159191395) rotate(0 112.22768165121846 -1.1563183263399424)"><path d="M191.01 9.11 C203.56 6.87, 213.57 6.48, 222.51 -1.63" stroke="#1e1e1e" stroke-width="4.5" fill="none"></path></g><g transform="translate(690.9483765031845 230.06785159191395) rotate(0 112.22768165121846 -1.1563183263399424)"><path d="M191.21 -11.41 C203.39 -6.95, 213.34 -0.63, 222.51 -1.63" stroke="#1e1e1e" stroke-width="4.5" fill="none"></path></g></g><mask></mask></svg>