<svg version="1.1"
  xmlns="http://www.w3.org/2000/svg" viewBox="0 0 899.0380859375 453.2275390625" width="1798.076171875" height="906.455078125">
  <!-- svg-source:excalidraw -->

  <defs>
    <style class="style-fonts">
      @font-face {
        font-family: "Virgil";
        src: url("https://excalidraw.com/Virgil.woff2");
      }
      @font-face {
        font-family: "Cascadia";
        src: url("https://excalidraw.com/Cascadia.woff2");
      }
    </style>

  </defs>
  <rect x="0" y="0" width="899.0380859375" height="453.2275390625" fill="none"></rect>
  <g stroke-linecap="round" transform="translate(10 10) rotate(0 439.51904296875 216.61376953125)">
    <path d="M1.45 -1.47 C338.66 2.22, 677.69 5.11, 877.46 1.05 M0.29 0.72 C348.24 -0.28, 694.69 0.73, 879.26 0.37 M878.77 0.41 C876.55 106.4, 876.19 210.53, 880.92 434.17 M879.37 0.68 C879.57 135.05, 878.88 272.98, 878.2 434.22 M877.74 433.82 C530.53 436.51, 183.84 435.23, -0.2 433.28 M879.76 433.97 C673.92 433.34, 468.29 433.51, -0.48 432.75 M-1.97 435.13 C-4.44 275.94, -4.11 117.68, 1.65 1.48 M0.37 433.1 C2.39 338.88, 2.33 243.23, -0.04 0.69" stroke="#1e1e1e" stroke-width="4" fill="none"></path>
  </g>
  <g stroke-linecap="round" transform="translate(45.13702392578125 40.41015625) rotate(0 67.6123046875 67.92724609374999)">
    <path d="M20.16 19.18 C26.24 11.86, 35.98 7.72, 45.11 4.84 C54.23 1.95, 64.77 1.01, 74.9 1.87 C85.03 2.73, 97.33 4.83, 105.89 10 C114.45 15.16, 121.35 24.65, 126.28 32.88 C131.21 41.11, 134.34 49.65, 135.47 59.36 C136.6 69.06, 136.73 81.57, 133.05 91.09 C129.37 100.62, 120.62 109.9, 113.38 116.53 C106.13 123.15, 98.62 127.96, 89.59 130.84 C80.56 133.72, 68.92 134.75, 59.19 133.79 C49.46 132.84, 39.21 130.51, 31.21 125.14 C23.22 119.77, 16.36 109.9, 11.23 101.56 C6.1 93.21, 1.47 84.5, 0.43 75.08 C-0.6 65.66, -0.44 55.94, 5.01 45.03 C10.47 34.12, 25.58 16.35, 33.17 9.61 C40.76 2.87, 49.72 3.46, 50.57 4.59 M26.09 17.1 C32.73 10.04, 42.66 3.56, 51.49 1.37 C60.32 -0.82, 69.94 1.53, 79.05 3.94 C88.16 6.36, 97.74 10.47, 106.14 15.84 C114.54 21.21, 124.59 27.66, 129.46 36.16 C134.33 44.65, 135.47 57.38, 135.37 66.81 C135.27 76.24, 132.91 83.99, 128.86 92.74 C124.81 101.5, 118.68 112.32, 111.08 119.34 C103.48 126.37, 92.9 132.15, 83.29 134.9 C73.67 137.64, 62.75 137.56, 53.39 135.81 C44.03 134.07, 34.68 130.84, 27.12 124.43 C19.57 118.02, 12.45 106.06, 8.05 97.37 C3.65 88.68, 1.21 81.98, 0.73 72.3 C0.25 62.63, 0.84 48.53, 5.18 39.33 C9.52 30.13, 22.99 20.51, 26.78 17.11 C30.56 13.7, 27.74 18.71, 27.86 18.9" stroke="#1e1e1e" stroke-width="4" fill="none"></path>
  </g>
  <g stroke-linecap="round" transform="translate(275.34210205078125 40.17333984375) rotate(0 67.6123046875 67.92724609374999)">
    <path d="M109.08 14.54 C117.15 18.8, 120.85 26.39, 125.24 34.9 C129.62 43.4, 134.71 55.39, 135.39 65.56 C136.07 75.73, 133.09 87.14, 129.33 95.91 C125.57 104.69, 120.34 112.05, 112.84 118.22 C105.33 124.4, 93.64 130.01, 84.31 132.97 C74.97 135.93, 66.55 137.61, 56.85 136 C47.15 134.39, 34.27 129.1, 26.09 123.3 C17.92 117.5, 11.88 110.06, 7.79 101.2 C3.69 92.34, 2.02 80.02, 1.54 70.14 C1.05 60.26, 1.5 50.49, 4.85 41.94 C8.2 33.4, 14.24 25.42, 21.62 18.87 C29 12.31, 39.47 5.5, 49.14 2.63 C58.81 -0.25, 65.77 -5.49, 79.63 1.61 C93.5 8.71, 123.85 31, 132.33 45.21 C140.8 59.42, 131.85 86.26, 130.5 86.86 M108.89 10.14 C117.12 14.93, 119.6 27.61, 123.51 36.63 C127.41 45.65, 131.2 55.31, 132.31 64.24 C133.43 73.17, 133.04 81.63, 130.19 90.21 C127.35 98.79, 122.13 108.54, 115.23 115.75 C108.33 122.96, 98.31 130.17, 88.8 133.47 C79.3 136.77, 68.03 137.04, 58.21 135.55 C48.39 134.07, 37.67 130.03, 29.9 124.57 C22.14 119.11, 16.68 111.89, 11.62 102.79 C6.56 93.68, 0.68 80.14, -0.45 69.93 C-1.59 59.72, 0.83 50.52, 4.81 41.54 C8.79 32.56, 16.61 22.17, 23.42 16.06 C30.24 9.96, 37.07 7.64, 45.72 4.89 C54.37 2.15, 65.71 -2.01, 75.34 -0.39 C84.97 1.23, 98.16 12.85, 103.5 14.6 C108.83 16.35, 107.42 9.22, 107.35 10.09" stroke="#1e1e1e" stroke-width="4" fill="none"></path>
  </g>
  <g stroke-linecap="round" transform="translate(46.32843017578125 265.921630859375) rotate(0 67.6123046875 67.92724609375)">
    <path d="M32.19 7.5 C39.84 2.16, 53.14 0.92, 62.91 0.21 C72.68 -0.5, 81.72 -0.43, 90.82 3.24 C99.93 6.92, 110.94 14.65, 117.52 22.24 C124.1 29.83, 127.33 39.17, 130.3 48.77 C133.27 58.38, 136.32 70.02, 135.35 79.85 C134.38 89.67, 130.47 99.7, 124.5 107.7 C118.54 115.7, 107.97 122.97, 99.53 127.84 C91.09 132.71, 83.13 136.16, 73.88 136.92 C64.63 137.68, 53.25 136.27, 44.01 132.39 C34.76 128.52, 24.97 120.94, 18.43 113.65 C11.88 106.37, 8.01 97.92, 4.75 88.67 C1.49 79.42, -2.44 68.04, -1.13 58.14 C0.18 48.24, -0.85 39.11, 12.59 29.26 C26.04 19.42, 61.93 -0.06, 79.52 -0.93 C97.11 -1.8, 118.42 22.59, 118.12 24.06 M124.89 31.13 C130.55 38.4, 130.7 50.82, 132.08 60.84 C133.46 70.85, 135.66 82.05, 133.16 91.22 C130.66 100.39, 124.46 108.96, 117.09 115.85 C109.71 122.74, 98.2 129.24, 88.91 132.57 C79.62 135.9, 71 137.33, 61.36 135.83 C51.72 134.33, 39.35 128.42, 31.07 123.57 C22.79 118.72, 17.21 114.14, 11.66 106.73 C6.12 99.31, -1.02 88.58, -2.19 79.08 C-3.36 69.58, 0.85 59.87, 4.62 49.74 C8.39 39.61, 14.35 25.44, 20.44 18.32 C26.53 11.2, 32.56 10.09, 41.18 7.02 C49.8 3.96, 61.81 -0.83, 72.15 -0.07 C82.5 0.69, 94.72 6.05, 103.26 11.6 C111.8 17.14, 120.57 29.7, 123.39 33.21 C126.21 36.72, 120.61 32.71, 120.16 32.64" stroke="#1e1e1e" stroke-width="4" fill="none"></path>
  </g>
  <g stroke-linecap="round" transform="translate(276.25030517578125 265.684814453125) rotate(0 67.6123046875 67.92724609375)">
    <path d="M29.68 11.91 C36.79 5.81, 46.17 0.71, 55.84 -0.7 C65.51 -2.12, 78.41 0.18, 87.7 3.43 C96.99 6.69, 104.28 11.95, 111.56 18.83 C118.84 25.71, 127.3 35.45, 131.39 44.7 C135.49 53.94, 137.28 64.62, 136.12 74.31 C134.96 84, 129.25 94.33, 124.42 102.82 C119.58 111.3, 114.68 119.64, 107.11 125.22 C99.54 130.81, 88.8 135.13, 78.99 136.34 C69.18 137.55, 57.5 135.41, 48.24 132.46 C38.99 129.51, 31.06 125.14, 23.49 118.61 C15.92 112.09, 6.58 102.62, 2.83 93.29 C-0.92 83.96, -0.35 72.8, 0.98 62.65 C2.31 52.5, 3.51 41.81, 10.83 32.39 C18.14 22.98, 36.86 11.17, 44.86 6.19 C52.85 1.21, 58.41 1.81, 58.82 2.52 M100.44 11.87 C108.98 16.17, 119.96 25.22, 125.79 33.32 C131.63 41.42, 134.86 50.91, 135.46 60.47 C136.06 70.03, 132.64 81.47, 129.38 90.68 C126.12 99.89, 122.66 109.3, 115.91 115.73 C109.16 122.15, 98 125.69, 88.9 129.24 C79.8 132.8, 71.22 137.25, 61.32 137.05 C51.41 136.85, 37.67 132.94, 29.45 128.04 C21.23 123.14, 16.55 116.7, 11.99 107.64 C7.42 98.59, 3.95 83.49, 2.07 73.7 C0.19 63.91, -1.88 57.86, 0.71 48.91 C3.3 39.97, 10.15 27.19, 17.6 20.03 C25.05 12.86, 36.07 8.78, 45.43 5.92 C54.78 3.07, 64.62 2, 73.74 2.89 C82.86 3.78, 95.01 10.15, 100.14 11.27 C105.26 12.38, 104.51 9.05, 104.48 9.57" stroke="#1e1e1e" stroke-width="4" fill="none"></path>
  </g>
  <g stroke-linecap="round" transform="translate(495.39581298828125 39.35302734375) rotate(0 67.6123046875 67.92724609374999)">
    <path d="M52 0.17 C60.91 -3.26, 71.45 -1.34, 81.26 1.14 C91.06 3.62, 102.7 9.24, 110.84 15.07 C118.98 20.9, 125.9 27.7, 130.09 36.14 C134.29 44.59, 136.22 55.84, 136.01 65.75 C135.8 75.66, 133.32 86.38, 128.84 95.58 C124.35 104.78, 116.54 114.86, 109.11 120.98 C101.68 127.09, 93.67 129.78, 84.26 132.27 C74.85 134.77, 62.47 137.77, 52.67 135.93 C42.87 134.09, 33.22 127.8, 25.46 121.23 C17.7 114.66, 10.32 104.91, 6.1 96.5 C1.88 88.09, -0.06 80.02, 0.15 70.79 C0.36 61.57, 3.35 50.67, 7.35 41.15 C11.34 31.62, 13.64 20.41, 24.12 13.63 C34.6 6.86, 60.09 1.87, 70.24 0.5 C80.39 -0.87, 85.04 4.18, 85.02 5.41 M41.31 5.28 C48.7 0.64, 59.76 -1.22, 69.38 -0.75 C79 -0.29, 90.1 2.83, 99.02 8.07 C107.93 13.3, 117.23 23.03, 122.88 30.65 C128.53 38.28, 131.64 44.88, 132.93 53.81 C134.21 62.74, 133.5 74.56, 130.6 84.23 C127.7 93.89, 121.5 104.16, 115.52 111.8 C109.54 119.43, 103.26 126.11, 94.74 130.02 C86.22 133.94, 74.18 135.5, 64.43 135.28 C54.67 135.06, 44.89 133.14, 36.19 128.7 C27.49 124.25, 18.34 117.15, 12.2 108.6 C6.06 100.05, 0.94 86.99, -0.67 77.39 C-2.28 67.78, -0.19 60.05, 2.56 50.95 C5.31 41.86, 9.53 30.78, 15.82 22.82 C22.11 14.86, 36.07 5.75, 40.3 3.17 C44.54 0.59, 40.47 5.73, 41.21 7.31" stroke="#1e1e1e" stroke-width="4" fill="none"></path>
  </g>
  <g stroke-linecap="round" transform="translate(496.38214111328125 264.30908203125) rotate(0 67.6123046875 67.92724609375)">
    <path d="M111.2 19.05 C118.35 24.48, 124.65 33.36, 128.41 42.49 C132.16 51.62, 134.18 63.92, 133.75 73.83 C133.31 83.74, 130.2 93.51, 125.81 101.95 C121.42 110.39, 115.14 119.18, 107.4 124.49 C99.66 129.8, 89.26 132.45, 79.36 133.8 C69.47 135.15, 57.55 135.02, 48.03 132.62 C38.52 130.21, 29.53 125.65, 22.29 119.35 C15.05 113.05, 8.28 104.3, 4.58 94.83 C0.87 85.35, -0.53 72.58, 0.07 62.5 C0.67 52.42, 3.44 42.35, 8.18 34.33 C12.92 26.32, 20.31 20.03, 28.52 14.41 C36.73 8.79, 47.7 2.25, 57.46 0.62 C67.21 -1.02, 76.79 0.91, 87.06 4.6 C97.33 8.28, 113.71 18.88, 119.09 22.72 C124.47 26.56, 120.71 26.83, 119.35 27.61 M102.78 7.16 C110.68 10.59, 117.09 21.34, 122.84 29.66 C128.59 37.99, 136.26 46.76, 137.26 57.09 C138.25 67.43, 132.56 82.35, 128.82 91.65 C125.08 100.96, 121.6 105.98, 114.8 112.9 C108 119.82, 96.75 129.33, 88.03 133.18 C79.32 137.02, 71.92 137.36, 62.54 135.94 C53.15 134.53, 39.9 130.28, 31.72 124.68 C23.54 119.08, 18.38 110.24, 13.45 102.32 C8.52 94.4, 4.03 86.33, 2.15 77.17 C0.27 68, -0.24 57.2, 2.16 47.32 C4.55 37.44, 9.32 25.26, 16.54 17.88 C23.76 10.49, 35.55 5.78, 45.46 3.01 C55.36 0.23, 66 0.06, 75.95 1.24 C85.91 2.42, 100.76 8.25, 105.2 10.09 C109.64 11.93, 103.96 11.07, 102.6 12.26" stroke="#1e1e1e" stroke-width="4" fill="none"></path>
  </g>
  <g stroke-linecap="round" transform="translate(717.6028442382812 40.517578125) rotate(0 67.6123046875 67.92724609374999)">
    <path d="M109.12 16.22 C117.08 21.32, 123.23 30.08, 127.83 38.62 C132.43 47.17, 136.57 57.55, 136.73 67.48 C136.89 77.41, 133.22 89.1, 128.79 98.2 C124.36 107.3, 118.18 115.84, 110.14 122.09 C102.1 128.34, 90.32 134.06, 80.55 135.7 C70.78 137.35, 60.61 134.44, 51.52 131.96 C42.44 129.47, 33.26 126.89, 26.03 120.8 C18.79 114.7, 12.67 104.23, 8.12 95.38 C3.56 86.53, -0.88 77.29, -1.29 67.73 C-1.7 58.16, 1.38 47.03, 5.65 37.97 C9.92 28.92, 16.48 19.48, 24.32 13.39 C32.16 7.31, 42.59 3.51, 52.68 1.45 C62.77 -0.61, 71.79 -6.06, 84.86 1.04 C97.93 8.15, 123.31 31.19, 131.12 44.05 C138.93 56.92, 132.68 77.62, 131.72 78.24 M30.91 11.11 C38.26 5.64, 49.56 3.08, 59.51 2.08 C69.47 1.09, 81.94 2.66, 90.65 5.17 C99.36 7.68, 105.04 10.65, 111.76 17.14 C118.48 23.64, 126.87 34.25, 130.96 44.13 C135.06 54, 137.52 66.65, 136.33 76.38 C135.15 86.12, 129.26 94.11, 123.85 102.53 C118.44 110.95, 111.17 121.34, 103.86 126.91 C96.54 132.49, 89.19 134.91, 79.97 135.99 C70.75 137.07, 58.72 136.46, 48.54 133.38 C38.35 130.3, 25.91 124.45, 18.87 117.52 C11.83 110.59, 9.69 100.53, 6.29 91.81 C2.88 83.08, -2 75.24, -1.58 65.16 C-1.16 55.08, 3.21 40.38, 8.82 31.33 C14.43 22.28, 28.69 14.05, 32.07 10.87 C35.44 7.69, 29.16 11.34, 29.08 12.25" stroke="#1e1e1e" stroke-width="4" fill="none"></path>
  </g>
  <g stroke-linecap="round" transform="translate(718.5891723632812 265.4736328125) rotate(0 67.6123046875 67.92724609375)">
    <path d="M49.78 1.36 C59.02 -2.3, 72.61 -2.16, 82.5 -0.11 C92.38 1.94, 101.38 7.42, 109.12 13.66 C116.86 19.91, 124.77 28.37, 128.92 37.35 C133.08 46.33, 134.03 58.12, 134.07 67.55 C134.12 76.97, 132.79 85.08, 129.18 93.88 C125.58 102.68, 119.61 113.88, 112.44 120.34 C105.27 126.8, 96.09 130.14, 86.17 132.64 C76.25 135.13, 63.08 137.01, 52.94 135.32 C42.8 133.63, 33.22 128.71, 25.32 122.51 C17.42 116.31, 9.89 106.95, 5.53 98.13 C1.17 89.32, -1.12 79.44, -0.85 69.61 C-0.57 59.77, 2.95 47.94, 7.2 39.12 C11.45 30.3, 17.06 22.8, 24.63 16.67 C32.2 10.55, 46.96 4.46, 52.61 2.36 C58.27 0.27, 58.29 3.13, 58.56 4.11 M26 16.99 C32.79 10.66, 45.14 6.8, 54.02 3.99 C62.89 1.17, 70.09 -1.66, 79.26 0.11 C88.44 1.88, 100.7 7.93, 109.04 14.62 C117.38 21.31, 125.31 31.53, 129.33 40.24 C133.34 48.96, 133.43 57.14, 133.15 66.91 C132.86 76.68, 130.89 89.85, 127.62 98.88 C124.34 107.9, 120.55 115.14, 113.48 121.08 C106.4 127.03, 95.52 132.31, 85.17 134.56 C74.82 136.8, 60.86 136.76, 51.36 134.55 C41.87 132.35, 35.86 126.86, 28.21 121.31 C20.55 115.77, 10.21 110.37, 5.43 101.31 C0.65 92.24, -0.96 77.35, -0.48 66.95 C0 56.55, 4.41 47.54, 8.31 38.91 C12.21 30.29, 20.41 19.04, 22.9 15.19 C25.39 11.35, 22.65 14.98, 23.25 15.82" stroke="#1e1e1e" stroke-width="4" fill="none"></path>
  </g>
</svg>