<svg version="1.1"
    xmlns="http://www.w3.org/2000/svg" viewBox="0 0 899.0380859375 333.26416015625" width="1798.076171875" height="666.5283203125">
    <!-- svg-source:excalidraw -->

    <defs>
        <style class="style-fonts">
      @font-face {
        font-family: "Virgil";
        src: url("https://excalidraw.com/Virgil.woff2");
      }
      @font-face {
        font-family: "Cascadia";
        src: url("https://excalidraw.com/Cascadia.woff2");
      }
        </style>

    </defs>
    <rect x="0" y="0" width="899.0380859375" height="333.26416015625" fill="none"></rect>
    <g stroke-linecap="round" transform="translate(10 58.08837890625) rotate(0 439.51904296875 132.587890625)">
        <path d="M0.75 -1.57 C216.46 2.09, 431.28 0.52, 880.62 -0.85 M-0.04 -0.03 C228.42 -3.55, 457.06 -3.26, 879.82 -0.08 M881.8 -0.93 C884.03 100.06, 884.81 194.92, 876.24 264.13 M877.74 1.45 C884.46 92.39, 882.3 185.66, 879.07 266.25 M880.58 265.48 C591.51 259.11, 305.64 258.44, 1.53 266.41 M879.73 265.43 C587.97 271.88, 298.11 271.43, 0.2 264.91 M-2.13 265.07 C-0.29 202.38, 1.96 146.11, 1.36 -0.35 M1.29 265.91 C-2.79 161.5, -0.33 58.31, -0.22 -0.77" stroke="#1e1e1e" stroke-width="4" fill="none"></path>
    </g>
    <g stroke-linecap="round" transform="translate(53.76953125 12.36328125) rotate(0 68.30810546875 21.9140625)">
        <path d="M2.41 3.36 C40.25 2.11, 83.02 0.56, 135.02 -2.53 M-0.52 -0.83 C46.75 -0.02, 96.39 -0.11, 137.94 1.32 M139.44 3.81 C141.18 13.53, 133.84 23.65, 138.69 47.76 M138.25 -1.13 C134.8 13.67, 135.94 30.97, 137.15 44.47 M135.73 43.85 C109.78 42.7, 82.08 47.43, 1.22 42.33 M135.14 43.56 C82.46 43.32, 28.7 44.04, -1.43 42.55 M-3.74 41.1 C-0.31 32.78, 2.31 15.73, 3.52 1.57 M-1.45 42.83 C0.95 29.59, -0.99 17.13, -1.03 0.3" stroke="#1e1e1e" stroke-width="4" fill="none"></path>
    </g>
    <g stroke-linecap="round" transform="translate(266.5380859375 10) rotate(0 68.30810546875 21.9140625)">
        <path d="M0.71 -0.57 C31.53 -4.42, 53.55 -4.82, 138.44 -0.18 M-0.47 -0.12 C42.41 0.93, 82.25 2.46, 136.31 1.74 M140.42 1.05 C133.7 10.54, 139.31 27.66, 138.13 40.54 M135.52 -1.13 C137.38 18.51, 137.87 34.95, 134.89 45.76 M138.97 42.18 C96.87 46.93, 50.68 42.35, 3.87 47.3 M136.67 42.44 C91.72 42.79, 44.38 42.19, 0.31 42.48 M-0.9 46.61 C2.54 30.38, 4.34 19.39, -0.26 3.26 M1.67 42.45 C0.36 27.66, -0.4 13.74, -0.08 -0.4" stroke="#1e1e1e" stroke-width="4" fill="none"></path>
    </g>
    <g stroke-linecap="round" transform="translate(487.2607421875 10.8203125) rotate(0 68.30810546875 21.9140625)">
        <path d="M3.95 -2.12 C50.85 -2.14, 106.73 0.21, 136.46 -1.03 M1.95 -0.21 C36.6 1.49, 70.26 1.91, 136.03 1.41 M133.08 -1.32 C139.52 21.26, 138.96 31.37, 140.27 47.1 M136.66 1.36 C136.67 11.31, 134.41 23.27, 137 43.39 M140.45 46.91 C96.77 41.2, 58.36 46.17, 1.29 40.87 M137.12 43.15 C96.05 40.65, 58.64 40.58, -0.06 41.96 M1.72 43.39 C3.72 35.24, -0.06 26.76, 1.87 -2.89 M-0.27 42.85 C-1.76 33.16, -0.81 21.5, 0.21 1.32" stroke="#1e1e1e" stroke-width="4" fill="none"></path>
    </g>
    <g stroke-linecap="round" transform="translate(703.662109375 10.185546875) rotate(0 68.30810546875 21.9140625)">
        <path d="M-1.6 -2.53 C40.87 1.27, 77.93 0.42, 134.95 -0.95 M1.32 1.32 C39.83 2.03, 79.68 1.7, 138.52 1.9 M138.69 3.93 C137.35 11.01, 139.5 31.87, 134.35 41.64 M137.15 0.64 C134.91 12.59, 137.01 20.88, 136.63 45 M137.83 42.33 C105.13 49.4, 67.19 42.98, -0.54 43.94 M135.19 42.55 C105.44 41.56, 73.57 41.04, -1.36 43.38 M3.52 45.4 C-0.64 30.89, 1.49 8.54, -1.99 3.33 M-1.03 44.13 C0.04 33.29, 0.33 24.88, -0.63 1.3" stroke="#1e1e1e" stroke-width="4" fill="none"></path>
    </g>
</svg>